<svg width="182" height="127" viewBox="0 0 182 127" fill="none" xmlns="http://www.w3.org/2000/svg">
<path fill-rule="evenodd" clip-rule="evenodd" d="M42.7834 85.3428L41.8516 87.8811H39L44.3677 74H45.8774L51.1705 87.8811H48.319L47.3871 85.3428H42.7834ZM45.0946 78.9576L43.6781 82.7451H46.4924L45.0946 78.9576ZM56.5011 77.8273H56.6502C57.4206 77.8273 58.1567 77.9924 58.8588 78.3229C59.5608 78.6534 60.117 79.103 60.5269 79.6714L59.1851 81.0001C58.8992 80.6563 58.511 80.3754 58.0201 80.1573C57.5293 79.9391 57.0789 79.8301 56.6688 79.8301H56.5198C56.0849 79.8433 55.7369 79.9358 55.4759 80.1076C55.2151 80.2795 55.0847 80.5175 55.0847 80.8216C55.0847 81.0992 55.1996 81.3042 55.4294 81.4364C55.6593 81.5686 56.0601 81.661 56.6315 81.7139L57.2653 81.7933C59.564 81.9651 60.7132 82.9962 60.7132 84.8867C60.7132 85.7857 60.3717 86.5293 59.6883 87.1177C59.0048 87.706 58.0977 88 56.967 88H56.8738C55.9544 88 55.0909 87.8249 54.2832 87.4745C53.4755 87.1242 52.8791 86.6649 52.4939 86.0964L53.8358 84.7479C54.1091 85.0916 54.5379 85.3792 55.1218 85.6105C55.7059 85.8419 56.2836 85.9576 56.8552 85.9576H56.9485C57.8804 85.9576 58.3463 85.6337 58.3463 84.9859C58.3463 84.6157 58.222 84.3579 57.9735 84.2126C57.725 84.0671 57.315 83.9679 56.7435 83.915L56.2215 83.8556C53.8856 83.6441 52.7176 82.6856 52.7176 80.9802C52.7176 80.0018 53.078 79.2352 53.7985 78.6799C54.5192 78.1246 55.4201 77.8404 56.5011 77.8273ZM72.1384 87.8811H70.5543L70.4237 86.4731C69.6658 87.4911 68.6345 88 67.3299 88C66.0251 88 64.941 87.5109 64.0776 86.5327C63.214 85.5543 62.7821 84.3513 62.7821 82.9235C62.7821 81.4958 63.214 80.2894 64.0776 79.3045C64.941 78.3197 66.0251 77.8273 67.3299 77.8273C68.6345 77.8273 69.6658 78.3428 70.4237 79.3739L70.5543 77.966H72.1384V87.8811ZM67.5535 85.561C68.1996 85.561 68.7619 85.3164 69.2402 84.8272C69.7186 84.3381 69.9578 83.7035 69.9578 82.9235C69.9578 82.1436 69.7186 81.5056 69.2402 81.01C68.7619 80.5142 68.1996 80.2663 67.5535 80.2663C66.9074 80.2663 66.3451 80.5142 65.8667 81.01C65.3884 81.5056 65.1492 82.1436 65.1492 82.9235C65.1492 83.7035 65.3852 84.3381 65.8574 84.8272C66.3296 85.3164 66.8949 85.561 67.5535 85.561ZM81.8117 87.8811L80.2087 85.2436C79.9106 84.7545 79.6466 84.424 79.4167 84.2522C79.1867 84.0804 78.8606 83.9944 78.4382 83.9944H77.7858V87.8811H75.4188V74H77.7858V81.5751H78.3636C78.7861 81.5751 79.1091 81.4892 79.3328 81.3173C79.5565 81.1454 79.8173 80.8149 80.1156 80.3258L81.5693 77.966H84.1973L82.1098 81.3173C81.6376 82.0974 81.1966 82.5798 80.7865 82.7649C81.209 82.9103 81.6811 83.4061 82.2031 84.2522L84.4397 87.8811H81.8117ZM95.1565 87.8811H93.5723L93.4418 86.4731C92.6839 87.4911 91.6526 88 90.3479 88C89.0432 88 87.9591 87.5109 87.0956 86.5327C86.232 85.5543 85.8002 84.3513 85.8002 82.9235C85.8002 81.4958 86.232 80.2894 87.0956 79.3045C87.9591 78.3197 89.0432 77.8273 90.3479 77.8273C91.6526 77.8273 92.6839 78.3428 93.4418 79.3739L93.5723 77.966H95.1565V87.8811ZM90.5716 85.561C91.2177 85.561 91.78 85.3164 92.2584 84.8272C92.7367 84.3381 92.9758 83.7035 92.9758 82.9235C92.9758 82.1436 92.7367 81.5056 92.2584 81.01C91.78 80.5142 91.2177 80.2663 90.5716 80.2663C89.9255 80.2663 89.3631 80.5142 88.8848 81.01C88.4064 81.5056 88.1673 82.1436 88.1673 82.9235C88.1673 83.7035 88.4033 84.3381 88.8755 84.8272C89.3477 85.3164 89.913 85.561 90.5716 85.561ZM100.711 74V78.9377C101.32 78.1974 102.14 77.8273 103.171 77.8273C104.476 77.8273 105.557 78.3197 106.414 79.3045C107.271 80.2894 107.7 81.4958 107.7 82.9235C107.7 84.3513 107.271 85.5543 106.414 86.5327C105.557 87.5109 104.476 88 103.171 88C101.866 88 100.829 87.4911 100.058 86.4731L99.9279 87.8811H98.3436V74H100.711ZM104.615 81.01C104.137 80.5142 103.575 80.2663 102.929 80.2663C102.283 80.2663 101.72 80.5142 101.242 81.01C100.764 81.5056 100.524 82.1436 100.524 82.9235C100.524 83.7035 100.764 84.3381 101.242 84.8272C101.72 85.3164 102.283 85.561 102.929 85.561C103.587 85.561 104.152 85.3164 104.625 84.8272C105.097 84.3381 105.333 83.7035 105.333 82.9235C105.333 82.1436 105.094 81.5056 104.615 81.01ZM119.125 87.8811H117.541L117.41 86.4731C116.652 87.4911 115.621 88 114.316 88C113.012 88 111.928 87.5109 111.064 86.5327C110.201 85.5543 109.769 84.3513 109.769 82.9235C109.769 81.4958 110.201 80.2894 111.064 79.3045C111.928 78.3197 113.012 77.8273 114.316 77.8273C115.621 77.8273 116.652 78.3428 117.41 79.3739L117.541 77.966H119.125V87.8811ZM114.54 85.561C115.186 85.561 115.749 85.3164 116.227 84.8272C116.705 84.3381 116.944 83.7035 116.944 82.9235C116.944 82.1436 116.705 81.5056 116.227 81.01C115.749 80.5142 115.186 80.2663 114.54 80.2663C113.894 80.2663 113.332 80.5142 112.853 81.01C112.375 81.5056 112.136 82.1436 112.136 82.9235C112.136 83.7035 112.372 84.3381 112.844 84.8272C113.316 85.3164 113.882 85.561 114.54 85.561ZM127.27 77.8273C128.587 77.8273 129.593 78.2602 130.289 79.1261C130.985 79.9919 131.333 81.1652 131.333 82.6458V87.8811H128.966V82.8046C128.966 81.1124 128.276 80.2663 126.897 80.2663C126.189 80.2663 125.642 80.4943 125.257 80.9505C124.872 81.4066 124.679 82.0974 124.679 83.0228V87.8811H122.312V77.966H123.896L124.064 79.5128C124.71 78.389 125.779 77.8273 127.27 77.8273ZM140.913 87.8811L139.31 85.2436C139.012 84.7545 138.748 84.424 138.518 84.2522C138.288 84.0804 137.962 83.9944 137.54 83.9944H136.887V87.8811H134.52V74H136.887V81.5751H137.465C137.887 81.5751 138.21 81.4892 138.434 81.3173C138.658 81.1454 138.919 80.8149 139.217 80.3258L140.671 77.966H143.299L141.211 81.3173C140.739 82.0974 140.298 82.5798 139.888 82.7649C140.31 82.9103 140.783 83.4061 141.305 84.2522L143.541 87.8811H140.913Z" fill="white"/>
<path fill-rule="evenodd" clip-rule="evenodd" d="M82.2042 59.951L80.5755 61.6069C79.718 62.4786 78.8567 63.3535 78 64.2256V59.9553L78.0034 59.951H82.2042Z" fill="#F61E2E"/>
<path fill-rule="evenodd" clip-rule="evenodd" d="M96.7594 59.951V65.501H79.2594L81.7559 62.9637L82.8691 61.8355L84.7193 59.951H96.7594Z" fill="#F61E2E"/>
<path fill-rule="evenodd" clip-rule="evenodd" d="M96.7594 47.7179V58.143H86.5015C89.8726 54.719 93.3405 51.1926 96.7594 47.7179Z" fill="#F61E2E"/>
<path fill-rule="evenodd" clip-rule="evenodd" d="M104.097 40.251V65.501H98.5378V45.9057C99.5408 44.8864 100.544 43.8659 101.543 42.8466L104.097 40.251Z" fill="#F61E2E"/>
<path fill-rule="evenodd" clip-rule="evenodd" d="M102.813 39C96.1075 45.8234 89.7753 52.264 83.9864 58.143H79.7609L98.3703 39H102.813Z" fill="#F61E2E"/>
<path fill-rule="evenodd" clip-rule="evenodd" d="M95.8693 39L78 57.3829V39H95.8693Z" fill="#F61E2E"/>
</svg>
