<svg width="182" height="127" viewBox="0 0 182 127" fill="none" xmlns="http://www.w3.org/2000/svg">
<path d="M91.4467 56.6069L69.3101 44.8015L91.4467 33L113.583 44.8015L91.4467 56.6069ZM74.3395 44.8015L91.4467 53.923L108.554 44.8015L91.4467 35.68L74.3395 44.8015Z" fill="white"/>
<path d="M113.9 49.127V76.5653L91.5373 88.6586L69 76.5653V49.127L71.365 50.3911V75.1494L91.5334 85.9707L111.535 75.1533V50.3872L113.9 49.127Z" fill="#F3E2A5"/>
<path d="M91.5377 94.3183L70.708 83.1391L70.743 80.4746L91.5338 91.6304L112.153 80.4746L112.142 83.1741L91.5377 94.3183Z" fill="white"/>
<path d="M76.5305 52.8456V74.5699L74.1655 73.2552V51.5853L76.5305 52.8456Z" fill="white"/>
<path d="M108.52 51.6981V73.1035L106.155 74.5699V52.9584L108.52 51.6981Z" fill="white"/>
<path d="M91.4482 58.1552L79.8179 78.2574H82.4551L83.8477 75.8497H87.4185L88.7371 73.5664H85.1663L91.4444 62.7178L93.7471 66.7009L87.0606 78.2613H89.6979L91.1448 75.7602H98.9866L100.434 78.2613H103.075L91.4482 58.1552ZM92.4712 73.4691L95.0696 68.9765L97.668 73.4691H92.4712Z" fill="#F3E2A5"/>
</svg>
