<svg width="170" height="115" viewBox="0 0 170 115" fill="none" xmlns="http://www.w3.org/2000/svg">
<mask id="mask0_9422_29232" style="mask-type:luminance" maskUnits="userSpaceOnUse" x="43" y="20" width="84" height="76">
<path d="M127 20H43V96H127V20Z" fill="white"/>
</mask>
<g mask="url(#mask0_9422_29232)">
<path d="M93.8599 77.1006H85.2453C84.3154 77.1006 83.6318 77.2344 83.2215 77.4754C82.7293 77.7967 82.4832 78.2785 82.4832 78.8675V86.47C82.4832 87.2196 82.702 87.755 83.1396 88.0764C83.5771 88.3707 84.3428 88.5314 85.4093 88.5314H93.8326V90.8871H84.2061C82.6199 90.8871 81.3893 90.5659 80.514 89.9234C79.6389 89.281 79.2287 88.3976 79.2287 87.2732V78.3855C79.2287 77.047 79.6937 76.1102 80.5961 75.5479C81.3893 75.0661 82.6746 74.7983 84.4523 74.7983H93.8599V77.1006Z" fill="white"/>
<path d="M110.05 77.1005H101.654C100.286 77.1005 99.4386 77.3414 99.0831 77.85C98.8916 78.1445 98.7823 78.8405 98.7823 79.8845C98.7823 80.4467 99.0283 80.875 99.548 81.1962C99.9855 81.4372 100.669 81.571 101.627 81.571H105.1C106.576 81.571 107.752 81.8655 108.655 82.4277C109.53 83.0167 109.995 83.8197 109.995 84.8637V87.4069C109.995 88.5044 109.53 89.361 108.627 89.95C107.725 90.539 106.467 90.8334 104.908 90.8334H95.5552V88.4777H103.951C105.346 88.4777 106.221 88.2101 106.549 87.6747C106.713 87.4069 106.768 86.6841 106.768 85.5062C106.768 84.4087 105.865 83.8733 104.033 83.8733H100.56C99.1104 83.8733 97.9344 83.6055 97.032 83.0701C96.02 82.4813 95.5278 81.6781 95.5278 80.6608V78.1445C95.5278 77.0201 96.0748 76.1099 97.1687 75.4674C97.9344 74.9856 99.0557 74.7715 100.505 74.7715H110.05V77.1005Z" fill="white"/>
<path d="M126.514 77.1006H117.899C116.969 77.1006 116.286 77.2344 115.875 77.4754C115.383 77.7967 115.137 78.2785 115.137 78.8675V86.47C115.137 87.2196 115.356 87.755 115.793 88.0764C116.231 88.3707 116.997 88.5314 118.063 88.5314H126.486V90.8871H116.86C115.274 90.8871 114.043 90.5659 113.168 89.9234C112.293 89.281 111.882 88.3976 111.882 87.2732V78.3855C111.882 77.047 112.347 76.1102 113.25 75.5479C114.043 75.0661 115.328 74.7983 117.106 74.7983H126.514V77.1006Z" fill="white"/>
<path d="M75.7018 65.9103L75.7837 35.1783C75.7837 34.8571 75.3736 34.6697 75.1275 34.9107L43.5952 65.6427C43.349 65.8836 43.5131 66.2851 43.8687 66.2851H75.3189C75.5377 66.2851 75.7018 66.1245 75.7018 65.9103Z" fill="#0096DB"/>
<path d="M75.6472 69.9528L75.7291 95.6254C75.7291 95.9466 75.319 96.1339 75.0729 95.893L48.7367 70.2206C48.4905 69.9797 48.6546 69.5781 49.0102 69.5781H75.2917C75.4831 69.5781 75.6472 69.7655 75.6472 69.9528Z" fill="#49B172"/>
<path d="M89.4842 55.0151C90.0038 55.0151 90.4688 54.8277 90.8243 54.4529C91.2072 54.0781 91.3713 53.5963 91.3713 53.0609V49.902C91.3713 49.3666 91.1798 48.8847 90.8243 48.51C90.4414 48.1352 90.0038 47.9478 89.4842 47.9478C88.9647 47.9478 88.5271 48.1352 88.1442 48.51C87.7613 48.8847 87.5972 49.3666 87.5972 49.902V53.0609C87.5972 53.5963 87.7887 54.0781 88.1442 54.4529C88.4997 54.8009 88.9647 55.0151 89.4842 55.0151Z" fill="#0096DB"/>
<path d="M104.909 55.0151C105.428 55.0151 105.893 54.8277 106.249 54.4529C106.632 54.0781 106.796 53.5963 106.796 53.0609V49.902C106.796 49.3666 106.604 48.8847 106.249 48.51C105.866 48.1352 105.428 47.9478 104.909 47.9478C104.389 47.9478 103.952 48.1352 103.569 48.51C103.186 48.8847 103.022 49.3666 103.022 49.902V53.0609C103.022 53.5963 103.213 54.0781 103.569 54.4529C103.952 54.8009 104.389 55.0151 104.909 55.0151Z" fill="#0096DB"/>
<path d="M95.2826 41.6568C95.2826 42.1922 95.474 42.6742 95.8295 43.0489C96.2124 43.4237 96.65 43.6111 97.1696 43.6111C97.6892 43.6111 98.1541 43.4237 98.5096 43.0489C98.8925 42.6742 99.0566 42.1922 99.0566 41.6568V39.087L96.5407 36.6509C96.2671 36.7312 96.0209 36.8918 95.8021 37.1328C95.4193 37.5075 95.2552 37.9894 95.2552 38.5248V41.6568H95.2826Z" fill="#0096DB"/>
<path d="M81.171 59.3519H79.5847V58.067H82.7297L82.7571 66.3122H88.883V59.3519H87.2969V58.067H90.4419L90.4693 66.3122H94.3254C93.9425 65.7499 93.7511 65.1343 93.7511 64.4115V61.3597C93.7511 60.396 94.0792 59.5928 94.7629 58.9236C95.4193 58.2544 96.2396 57.9065 97.1968 57.9065C98.154 57.9065 98.9745 58.2544 99.6582 58.9236C100.342 59.5928 100.67 60.4227 100.67 61.3864V64.4382C100.67 65.1343 100.479 65.7768 100.096 66.3389H104.335V59.3519H102.749V58.067H105.894L105.921 66.3122H109.777C109.394 65.7499 109.203 65.1343 109.203 64.4115V61.3597C109.203 60.396 109.531 59.5928 110.215 58.9236C110.871 58.2544 111.691 57.9065 112.649 57.9065C113.606 57.9065 114.426 58.2544 115.11 58.9236C115.793 59.5928 116.122 60.4227 116.122 61.3864V64.4382C116.122 65.1343 115.93 65.7768 115.547 66.3389H119.786V59.3519H118.145V58.067H118.556L113.578 53.2216V54.9885H114.7V56.2734H110.898V54.9885H112.019V51.669L100.643 40.5862V41.6035C100.643 42.5405 100.315 43.3702 99.6308 44.0396C98.9472 44.7088 98.1267 45.0568 97.1968 45.0568C96.2396 45.0568 95.4193 44.7088 94.7629 44.0396C94.0792 43.3702 93.7511 42.5672 93.7511 41.6035V38.5517C93.7511 37.588 94.0792 36.7848 94.7629 36.1156C94.9817 35.8747 95.2279 35.714 95.5013 35.5535L90.4693 30.6545V32.2072H91.5905V33.4921H87.7891V32.2072H88.9104V29.1286L79.6395 20.1071C79.4207 19.893 79.0104 20.0536 79.0104 20.3481L79.0378 25.0328C79.1198 24.9257 79.2292 24.8186 79.3112 24.7116C79.9676 24.0423 80.7881 23.6944 81.7452 23.6944C82.7024 23.6944 83.5229 24.0423 84.2065 24.7116C84.8903 25.3809 85.2184 26.2107 85.2184 27.1745V30.2262C85.2184 31.1631 84.8903 31.993 84.2065 32.6622C83.5229 33.3316 82.7024 33.6796 81.7725 33.6796C80.8154 33.6796 79.995 33.3316 79.3386 32.6622C79.2566 32.5552 79.1471 32.475 79.0925 32.3679L79.2019 65.9373C79.2019 66.1248 79.3659 66.2855 79.5574 66.2855H81.1982V59.3519H81.171ZM101.463 49.9289C101.463 48.9652 101.791 48.1622 102.475 47.4928C103.131 46.8236 103.952 46.4756 104.909 46.4756C105.866 46.4756 106.687 46.8236 107.37 47.4928C108.054 48.1622 108.382 48.9919 108.382 49.9556V53.0074C108.382 53.9444 108.054 54.7743 107.37 55.4435C106.687 56.1129 105.866 56.4608 104.936 56.4608C103.979 56.4608 103.159 56.1129 102.502 55.4435C101.819 54.7743 101.49 53.9711 101.49 53.0074V49.9289H101.463ZM95.009 46.6629H98.154L98.1814 54.9885H99.3027V56.2734H95.5013V54.9885H96.6225V47.948H95.0364V46.6629H95.009ZM87.2969 35.259H90.4419L90.4693 43.5844H91.5905V44.8962H87.7891V43.6113H88.9104V36.5707H87.3243V35.259H87.2969ZM86.0116 49.9289C86.0116 48.9652 86.3397 48.1622 87.0234 47.4928C87.6798 46.8236 88.5003 46.4756 89.4573 46.4756C90.4145 46.4756 91.235 46.8236 91.9187 47.4928C92.6025 48.1622 92.9306 48.9919 92.9306 49.9556V53.0074C92.9306 53.9444 92.6025 54.7743 91.9187 55.4435C91.235 56.1129 90.4145 56.4608 89.4847 56.4608C88.5275 56.4608 87.7071 56.1129 87.0507 55.4435C86.3671 54.7743 86.0389 53.9711 86.0389 53.0074V49.9289H86.0116ZM79.5574 35.259H82.7024L82.7297 43.5844H83.851V44.8962H80.0496V43.6113H81.171V36.5707H79.5847V35.259H79.5574ZM79.5574 46.6629H82.7024L82.7297 54.9885H83.851V56.2734H80.0496V54.9885H81.171V47.948H79.5847V46.6629H79.5574Z" fill="#0096DB"/>
<path d="M83.112 31.6448C83.4949 31.27 83.659 30.7882 83.659 30.2528V27.0939C83.659 26.5585 83.4675 26.0766 83.112 25.7019C82.7292 25.3271 82.2915 25.1396 81.772 25.1396C81.2524 25.1396 80.8148 25.3271 80.4319 25.7019C80.049 26.0766 79.8849 26.5585 79.8849 27.0939V30.2528C79.8849 30.7882 80.0764 31.27 80.4319 31.6448C80.8148 32.0195 81.2524 32.207 81.772 32.207C82.2915 32.207 82.7292 32.0195 83.112 31.6448Z" fill="#0096DB"/>
<path d="M114.536 64.4382V61.2794C114.536 60.744 114.344 60.2622 113.989 59.8873C113.606 59.5126 113.168 59.3252 112.649 59.3252C112.129 59.3252 111.692 59.5126 111.309 59.8873C110.926 60.2622 110.762 60.744 110.762 61.2794V64.4382C110.762 64.9736 110.953 65.4555 111.309 65.8303C111.527 66.0444 111.746 66.2051 112.02 66.2853H113.278C113.551 66.2051 113.77 66.0444 113.989 65.8303C114.344 65.4287 114.536 64.9736 114.536 64.4382Z" fill="#0096DB"/>
<path d="M99.0835 64.4382V61.2794C99.0835 60.744 98.8921 60.2622 98.5366 59.8873C98.1537 59.5126 97.7161 59.3252 97.1965 59.3252C96.6768 59.3252 96.2393 59.5126 95.8565 59.8873C95.4736 60.2622 95.3095 60.744 95.3095 61.2794V64.4382C95.3095 64.9736 95.5009 65.4555 95.8565 65.8303C96.0753 66.0444 96.2941 66.2051 96.5675 66.2853H97.8254C98.099 66.2051 98.3178 66.0444 98.5366 65.8303C98.9195 65.4287 99.0835 64.9736 99.0835 64.4382Z" fill="#0096DB"/>
<path d="M126.404 65.6698L121.317 60.7173V66.2855H126.131C126.459 66.2855 126.623 65.9107 126.404 65.6698Z" fill="#0096DB"/>
</g>
</svg>
