<svg width="182" height="127" viewBox="0 0 182 127" fill="none" xmlns="http://www.w3.org/2000/svg">
<path fill-rule="evenodd" clip-rule="evenodd" d="M82.7873 60.6074H78.5438V58.5251H82.5095V56.9394H78.5438V55.1246H82.7011V53.5389H76.3789V62.2026H82.7873V60.6074Z" fill="white"/>
<path fill-rule="evenodd" clip-rule="evenodd" d="M96.4948 53.5389V62.2026H98.6596V58.7161H100.384C102.386 58.7161 103.248 57.3215 103.248 56.0988C103.248 54.9144 102.357 53.5294 100.365 53.5294H96.4948V53.5389ZM98.6596 55.1245H99.426C100.595 55.1245 101.016 55.392 101.016 56.1275C101.016 56.777 100.662 57.1305 99.6654 57.1305H98.6596V55.1245Z" fill="white"/>
<path fill-rule="evenodd" clip-rule="evenodd" d="M105.202 53.5389V62.2026H107.367V58.6779H107.99C109.158 58.6779 109.503 60.34 110.432 62.2026H112.827C111.601 59.6618 111.333 58.5919 110.442 58.1526C111.438 57.6941 111.936 56.9872 111.936 56.032C111.936 54.7329 110.882 53.5389 109.091 53.5389H105.202ZM107.367 55.1245H108.459C109.273 55.1245 109.695 55.4589 109.695 56.0988C109.695 56.8343 109.11 57.0923 108.507 57.0923H107.357V55.1245H107.367Z" fill="white"/>
<path fill-rule="evenodd" clip-rule="evenodd" d="M121.956 60.6074H117.712V58.5251H121.678V56.9394H117.712V55.1246H121.87V53.5389H115.547V62.2026H121.956V60.6074Z" fill="white"/>
<path fill-rule="evenodd" clip-rule="evenodd" d="M130.979 54.0929C129.887 53.6249 129.006 53.4243 128.038 53.4243C126.027 53.4243 124.724 54.4177 124.724 55.9174C124.724 59.0313 129.15 58.506 129.15 59.9292C129.15 60.4355 128.699 60.7316 127.876 60.7316C126.918 60.7316 126.151 60.4355 124.906 59.614V61.4862C125.768 61.9351 126.525 62.3268 128.038 62.3268C129.973 62.3268 131.382 61.362 131.382 59.7C131.382 56.672 126.956 57.0445 126.956 55.7359C126.956 55.306 127.454 55.029 128.23 55.029C128.968 55.029 129.724 55.2487 130.979 55.8027V54.0929Z" fill="white"/>
<path fill-rule="evenodd" clip-rule="evenodd" d="M140.166 54.0929C139.074 53.6249 138.192 53.4243 137.225 53.4243C135.213 53.4243 133.911 54.4177 133.911 55.9174C133.911 59.0313 138.336 58.506 138.336 59.9292C138.336 60.4355 137.886 60.7316 137.062 60.7316C136.104 60.7316 135.338 60.4355 134.093 59.614V61.4862C134.955 61.9351 135.711 62.3268 137.225 62.3268C139.16 62.3268 140.568 61.362 140.568 59.7C140.568 56.672 136.142 57.0445 136.142 55.7359C136.142 55.306 136.641 55.029 137.416 55.029C138.154 55.029 138.911 55.2487 140.166 55.8027V54.0929Z" fill="white"/>
<path fill-rule="evenodd" clip-rule="evenodd" d="M152.772 60.4355H149.965C151.517 58.4677 152.321 56.9776 152.321 55.8887C152.321 54.3508 151.277 53.4243 149.572 53.4243C148.748 53.4243 148.078 53.6535 147.139 54.2458V56.0606C147.838 55.3824 148.614 54.9813 149.227 54.9813C149.879 54.9813 150.386 55.5544 150.386 56.223C150.386 56.9012 150.157 57.5316 149.448 58.611C148.825 59.5662 147.944 60.8366 147.024 61.9542V62.193H152.772V60.4355Z" fill="white"/>
<path fill-rule="evenodd" clip-rule="evenodd" d="M160.416 53.4243H159.19L155.099 58.6874V60.0725H158.49V62.2026H160.416V60.0725H161V58.6874H160.416V53.4243ZM158.471 56.3185H158.5V58.6779H156.642L158.471 56.3185Z" fill="white"/>
<path fill-rule="evenodd" clip-rule="evenodd" d="M89.7127 56.2326L87.9885 53.5389H85.5267L88.3142 57.7132L85.4309 62.2026H87.8448L89.7127 59.1937L91.5902 62.2026H94.0042L91.1209 57.7132L93.9084 53.5389H91.4466L89.7127 56.2326Z" fill="white"/>
<path fill-rule="evenodd" clip-rule="evenodd" d="M82.7392 60.5883H78.4957V58.5059H82.4614V56.9203H78.4957V55.1054H82.653V53.5198H76.3308V62.1739H82.7392V60.5883Z" fill="white"/>
<path fill-rule="evenodd" clip-rule="evenodd" d="M96.4373 53.5198V62.1835H98.6021V58.7065H100.317C102.319 58.7065 103.181 57.3119 103.181 56.0893C103.181 54.9048 102.29 53.5198 100.307 53.5198H96.4373V53.5198ZM98.6021 55.1054H99.3684C100.537 55.1054 100.959 55.3729 100.959 56.1084C100.959 56.7579 100.604 57.1114 99.6079 57.1114H98.6021V55.1054Z" fill="white"/>
<path fill-rule="evenodd" clip-rule="evenodd" d="M105.135 53.5198V62.1835H107.3V58.6683H107.923C109.091 58.6683 109.436 60.3304 110.365 62.1835H112.75C111.524 59.6426 111.256 58.5728 110.365 58.1334C111.361 57.6749 111.859 56.9681 111.859 56.0129C111.859 54.7138 110.806 53.5198 109.024 53.5198H105.135ZM107.3 55.1054H108.392C109.206 55.1054 109.628 55.4398 109.628 56.0797C109.628 56.8152 109.043 57.0732 108.44 57.0732H107.29V55.1054H107.3Z" fill="white"/>
<path fill-rule="evenodd" clip-rule="evenodd" d="M121.879 60.5883H117.636V58.5059H121.592V56.9203H117.636V55.1054H121.783V53.5198H115.471V62.1739H121.879V60.5883Z" fill="white"/>
<path fill-rule="evenodd" clip-rule="evenodd" d="M130.893 54.0738C129.801 53.6057 128.92 53.4051 127.952 53.4051C125.941 53.4051 124.638 54.3986 124.638 55.8982C124.638 59.0122 129.054 58.4868 129.054 59.9101C129.054 60.4163 128.604 60.7124 127.78 60.7124C126.822 60.7124 126.065 60.4163 124.81 59.5949V61.4575C125.672 61.9064 126.429 62.2981 127.943 62.2981C129.878 62.2981 131.276 61.3333 131.276 59.6713C131.276 56.6528 126.86 57.0158 126.86 55.7072C126.86 55.2773 127.358 55.0003 128.134 55.0003C128.872 55.0003 129.629 55.22 130.883 55.774V54.0738H130.893Z" fill="white"/>
<path fill-rule="evenodd" clip-rule="evenodd" d="M140.07 54.0738C138.978 53.6057 138.097 53.4051 137.129 53.4051C135.117 53.4051 133.815 54.3986 133.815 55.8982C133.815 59.0122 138.231 58.4868 138.231 59.9101C138.231 60.4163 137.78 60.7124 136.957 60.7124C135.999 60.7124 135.242 60.4163 133.987 59.5949V61.4575C134.849 61.9064 135.606 62.2981 137.119 62.2981C139.054 62.2981 140.453 61.3333 140.453 59.6713C140.453 56.6528 136.037 57.0158 136.037 55.7072C136.037 55.2773 136.535 55.0003 137.311 55.0003C138.049 55.0003 138.805 55.22 140.06 55.774V54.0738H140.07Z" fill="white"/>
<path fill-rule="evenodd" clip-rule="evenodd" d="M152.666 60.4163H149.869C151.421 58.4486 152.226 56.9585 152.226 55.8696C152.226 54.3317 151.181 53.4051 149.476 53.4051C148.653 53.4051 147.982 53.6344 147.043 54.2266V56.0415C147.743 55.3729 148.518 54.9621 149.132 54.9621C149.783 54.9621 150.291 55.5352 150.291 56.2039C150.291 56.8725 150.061 57.5125 149.352 58.5919C148.729 59.5471 147.848 60.8175 146.928 61.9351V62.1739H152.676V60.4163H152.666Z" fill="white"/>
<path fill-rule="evenodd" clip-rule="evenodd" d="M160.31 53.4051H159.084L154.994 58.6588V60.0438H158.385V62.1739H160.31V60.0438H160.895V58.6588H160.31V53.4051ZM158.366 56.2994H158.395V58.6587H156.536L158.366 56.2994Z" fill="white"/>
<path fill-rule="evenodd" clip-rule="evenodd" d="M89.665 56.2134L87.9311 53.5198H85.4693L88.2568 57.694L85.3735 62.1739H87.7875L89.665 59.1746L91.5424 62.1739H93.9468L91.0635 57.694L93.851 53.5198H91.3892L89.665 56.2134Z" fill="white"/>
<path fill-rule="evenodd" clip-rule="evenodd" d="M79.6643 68.1821C79.1566 67.972 78.7639 67.8765 78.3807 67.8765C77.1929 67.8765 76.3308 68.7075 76.3308 69.8442C76.3308 70.6275 76.9439 71.7068 78.352 71.7068C78.9363 71.7068 79.3386 71.5731 79.7122 71.3821V70.7994C79.2907 71.0764 78.8309 71.2197 78.4095 71.2197C77.509 71.2197 76.896 70.637 76.896 69.806C76.896 68.9845 77.5282 68.3732 78.3903 68.3732C78.8214 68.3732 79.2237 68.4974 79.6835 68.7648V68.1821H79.6643ZM82.6147 67.9053H82.2315L80.6222 71.6592H81.1682L82.4135 68.6312L83.7354 71.6592H84.2814L82.6147 67.9053ZM85.4979 67.9245H84.9615L86.5995 71.6593C86.5707 71.9172 86.3121 72.0701 86.1684 72.0701C85.9481 72.0701 85.7948 72.0223 85.6703 71.8981V72.3757C85.7948 72.4522 85.9577 72.5095 86.1397 72.5095C86.5707 72.5095 86.8485 72.2611 87.0689 71.6593L88.4674 67.9245H87.9406L86.839 71.048L85.4979 67.9245ZM91.7722 69.4433C91.3794 69.4433 91.1208 69.3382 90.9005 68.7842C90.6419 68.1251 90.3545 67.9341 89.8276 67.9341H89.7414V68.4117C90.2204 68.4117 90.3257 68.5836 90.479 69.023C90.5748 69.3 90.8143 69.577 91.0442 69.6821C90.7376 69.8254 90.5461 69.9591 90.3162 70.303L89.4157 71.6593H90.0384L90.7664 70.5227C90.9675 70.2074 91.3507 69.8827 91.7722 69.8827V71.6593H92.3086V69.8827C92.7301 69.8827 93.1133 70.2074 93.3144 70.5227L94.0424 71.6593H94.6651L93.7646 70.303C93.5347 69.9591 93.3432 69.8254 93.0366 69.6821C93.2665 69.577 93.506 69.2904 93.6018 69.023C93.7551 68.5836 93.8508 68.4117 94.3394 68.4117V67.9341H94.2532C93.7263 67.9341 93.4389 68.1251 93.1803 68.7842C92.96 69.3382 92.7014 69.4433 92.3086 69.4433V67.9245H91.7722V69.4433ZM95.9773 71.6594H97.2705C98.0656 71.6594 98.6116 71.2391 98.6116 70.5418C98.6116 69.835 98.056 69.4243 97.2705 69.4243H96.5138V68.4117H98.3625V67.9341H95.9773V71.6594ZM96.5139 69.9015H97.2323C97.7879 69.9015 98.0657 70.1308 98.0657 70.5415C98.0657 70.8854 97.7879 71.1719 97.3377 71.1719H96.5139V69.9015ZM101.447 67.9053H101.064L99.4547 71.6592H100.001L100.47 70.5607H102.06L102.558 71.6592H103.104L101.447 67.9053ZM101.246 68.7266L101.849 70.083H100.681L101.246 68.7266ZM109.369 71.1816H108.823L107.53 67.9053H107.147L105.911 71.1816H105.365V72.347H105.911V71.6592H108.823V72.347H109.369V71.1816ZM107.329 68.6884L108.277 71.1815H106.447L107.329 68.6884ZM110.346 69.7964C110.346 70.8089 111.122 71.7164 112.348 71.7164C113.612 71.7164 114.369 70.8089 114.369 69.7964C114.369 68.7552 113.593 67.8765 112.358 67.8765C111.141 67.8765 110.346 68.7552 110.346 69.7964ZM110.902 69.7964C110.902 68.975 111.524 68.3732 112.358 68.3732C113.201 68.3732 113.814 68.975 113.814 69.7964C113.814 70.6084 113.191 71.2197 112.358 71.2197C111.524 71.2197 110.902 70.6084 110.902 69.7964ZM118.89 68.1821C118.383 67.972 117.99 67.8765 117.607 67.8765C116.419 67.8765 115.557 68.7075 115.557 69.8442C115.557 70.6274 116.17 71.7068 117.578 71.7068C118.162 71.7068 118.565 71.5731 118.938 71.382V70.7994C118.517 71.0764 118.057 71.2197 117.636 71.2197C116.735 71.2197 116.122 70.637 116.122 69.806C116.122 68.9845 116.754 68.3732 117.616 68.3732C118.047 68.3732 118.45 68.4973 118.91 68.7648V68.1821H118.89ZM123.077 67.9245H119.944V68.4021H121.237V71.6498H121.774V68.4021H123.067V67.9245H123.077ZM125.826 67.9053H125.443L123.833 71.6592H124.379L124.849 70.5607H126.439L126.937 71.6592H127.483L125.826 67.9053ZM125.625 68.7266L126.228 70.083H125.069L125.625 68.7266ZM128.584 71.6593H129.868C130.807 71.6593 131.152 71.1244 131.152 70.6659C131.152 70.1597 130.807 69.7967 130.251 69.6916V69.6821C130.644 69.5197 130.826 69.2713 130.826 68.8797C130.826 68.4117 130.481 67.9245 129.676 67.9245H128.594V71.6593H128.584ZM129.121 68.4114H129.619C130.117 68.4114 130.27 68.6502 130.27 68.9272C130.27 69.3284 130.012 69.5194 129.475 69.5194H129.121V68.4114ZM129.121 70.0066H129.772C130.337 70.0066 130.606 70.2454 130.606 70.5892C130.606 70.8662 130.433 71.1815 129.801 71.1815H129.13V70.0066H129.121ZM132.349 67.9245V71.6593H132.885V69.8827H133.039C133.393 69.8827 133.767 70.1024 134.083 70.6564L134.667 71.6593H135.28L134.629 70.5227C134.361 70.0546 134.073 69.7871 133.815 69.6725C134.016 69.577 134.236 69.2904 134.332 69.023C134.485 68.5836 134.581 68.4117 135.07 68.4117V67.9341H134.983C134.456 67.9341 134.169 68.1251 133.91 68.7842C133.69 69.3382 133.431 69.4433 133.039 69.4433H132.885V67.9245H132.349ZM139.849 67.9245H139.591L137.215 70.7615V67.9245H136.669V71.6975H136.928L139.303 68.9084V71.6498H139.84V67.9245H139.849Z" fill="white"/>
<path fill-rule="evenodd" clip-rule="evenodd" d="M44.4112 46.8694C53.291 46.8694 60.4945 54.0526 60.4945 62.9073C60.4945 71.762 53.291 78.9451 44.4112 78.9451C35.5314 78.9451 28.328 71.762 28.328 62.9073C28.3376 54.0526 35.5314 46.8694 44.4112 46.8694Z" fill="#FFC521"/>
<path fill-rule="evenodd" clip-rule="evenodd" d="M44.4112 72.1345C31.4795 72.1345 21 68.1705 21 65.8111C21 63.4518 26.4984 61.9521 34.4107 60.4429C34.4011 60.8727 34.4011 61.3217 34.4011 61.7515C34.7364 63.4804 39.0661 64.3879 44.4208 64.3879C49.7755 64.3879 54.1148 63.4135 54.4405 61.7515C54.4405 61.3121 54.4405 60.8727 54.4309 60.4429C62.3432 61.9521 67.832 63.4518 67.832 65.8111C67.832 68.1705 57.3429 72.1345 44.4112 72.1345Z" fill="#8CC798"/>
<path fill-rule="evenodd" clip-rule="evenodd" d="M53.521 71.4754C51.4423 73.3858 48.1376 74.6276 44.4209 74.6276C40.7042 74.6276 37.3995 73.3954 35.3208 71.4754C38.1179 71.8862 41.1928 72.125 44.4209 72.125C47.6395 72.1345 50.7239 71.8862 53.521 71.4754Z" fill="#8CC798"/>
<path fill-rule="evenodd" clip-rule="evenodd" d="M44.2006 74.6276C40.5701 74.5799 37.3516 73.3572 35.3208 71.485C36.7864 71.6952 38.3286 71.8671 39.9283 71.9817C40.2253 72.3925 41.3843 73.7679 44.2006 74.6276Z" fill="#4FA26C"/>
<path fill-rule="evenodd" clip-rule="evenodd" d="M44.4208 51.187C39.1906 51.187 34.7843 55.2466 34.4107 60.4524L34.4011 60.9396C34.6885 62.4106 39.0661 63.5759 44.4208 63.5759C49.7755 63.5759 54.1531 62.4106 54.4405 60.9396L54.4309 60.4524C54.0573 55.2466 49.651 51.187 44.4208 51.187Z" fill="#009DE2"/>
<path fill-rule="evenodd" clip-rule="evenodd" d="M51.3848 62.8022L51.471 62.7831C52.314 62.5538 54.2489 61.933 54.4405 60.9491L54.4309 60.4619C54.1915 57.0423 52.1703 53.957 49.0667 52.3332C48.923 52.2568 48.8176 52.1994 48.6165 52.1135C48.7697 52.2281 51.3848 54.3487 51.3848 59.4017V62.8022Z" fill="#A0D8F7"/>
<path fill-rule="evenodd" clip-rule="evenodd" d="M34.4011 60.9491V61.761C34.7364 63.4899 39.0661 64.3974 44.4208 64.3974C49.7755 64.3974 54.1148 63.4231 54.4405 61.761V60.9491C54.1531 62.4201 49.7755 63.5855 44.4208 63.5855C39.0565 63.5855 34.6789 62.4201 34.4011 60.9491Z" fill="#FFEC00"/>
<path fill-rule="evenodd" clip-rule="evenodd" d="M44.4207 66.6325C45.3116 66.6325 46.0396 67.3585 46.0396 68.2468V68.2564C45.5798 68.4761 45.0242 68.6003 44.4207 68.6003C43.8173 68.6003 43.2617 68.4761 42.8019 68.2564V68.2468C42.8019 67.3585 43.5299 66.6325 44.4207 66.6325Z" fill="#FFEC00"/>
<path fill-rule="evenodd" clip-rule="evenodd" d="M42.8019 68.2661V68.2566V68.2184C42.821 67.5211 43.3 66.9193 43.9418 66.7187L43.9801 66.7092L44.0184 66.6996L44.0472 66.6901H44.0567L44.0855 66.6805H44.0951H44.1046L44.1429 66.671L44.1717 66.6614H44.1813H44.21H44.2196H44.2483H44.2675H44.2962H44.325C44.3154 66.671 43.6161 67.0626 43.4916 67.8172C43.4533 68.0655 43.4437 68.3044 43.4437 68.5145C43.2138 68.4285 42.9935 68.3521 42.8019 68.2661Z" fill="#FFCB00"/>
<path fill-rule="evenodd" clip-rule="evenodd" d="M46.0396 68.2659V68.734C45.5798 68.9537 45.0242 69.0779 44.4207 69.0779C43.8173 69.0779 43.2617 68.9537 42.8019 68.734V68.2659C43.2617 68.4856 43.8173 68.6098 44.4207 68.6098C45.0146 68.6098 45.5798 68.4761 46.0396 68.2659Z" fill="#EE7C00"/>
<path fill-rule="evenodd" clip-rule="evenodd" d="M35.3016 65.8111C36.1925 65.8111 36.9205 66.537 36.9205 67.4254V67.4349C36.4607 67.6546 35.9051 67.7788 35.3016 67.7788C34.6981 67.7788 34.1425 67.6546 33.6827 67.4349V67.4254C33.6827 66.537 34.4107 65.8111 35.3016 65.8111Z" fill="#FFEC00"/>
<path fill-rule="evenodd" clip-rule="evenodd" d="M33.6827 67.4351V67.4256V67.3874C33.7019 66.6805 34.1808 66.0883 34.8226 65.8877L34.861 65.8782L34.8993 65.8686L34.928 65.859H34.9376L34.9663 65.8495H34.9759H34.9855L35.0238 65.8399H35.0525H35.0621H35.0909H35.1004H35.1292H35.1483H35.1771H35.2058C35.1962 65.8495 34.497 66.2411 34.3724 66.9957C34.3341 67.2345 34.3245 67.4829 34.3245 67.693C34.0851 67.6071 33.8743 67.5306 33.6827 67.4351Z" fill="#FFCB00"/>
<path fill-rule="evenodd" clip-rule="evenodd" d="M36.9205 67.4349V67.903C36.4607 68.1227 35.9051 68.2469 35.3016 68.2469C34.6981 68.2469 34.1425 68.1227 33.6827 67.903V67.4349C34.1425 67.6546 34.6981 67.7788 35.3016 67.7788C35.8955 67.7788 36.4607 67.6546 36.9205 67.4349Z" fill="#EE7C00"/>
<path fill-rule="evenodd" clip-rule="evenodd" d="M53.0708 65.8111C53.9616 65.8111 54.6896 66.537 54.6896 67.4254V67.4349C54.2298 67.6546 53.6742 67.7788 53.0708 67.7788C52.4673 67.7788 51.9117 67.6546 51.4519 67.4349V67.4254C51.4519 66.537 52.1799 65.8111 53.0708 65.8111Z" fill="#FFEC00"/>
<path fill-rule="evenodd" clip-rule="evenodd" d="M51.4519 67.4351V67.4256V67.3874C51.4711 66.6805 51.95 66.0883 52.5918 65.8877L52.6301 65.8782L52.6684 65.8686L52.6972 65.859H52.7068L52.7355 65.8495H52.7451H52.7547L52.793 65.8399H52.8217H52.8313H52.86H52.8696H52.8983H52.9175H52.9462H52.975C52.9654 65.8495 52.2661 66.2411 52.1416 66.9957C52.1033 67.2345 52.0937 67.4829 52.0937 67.693C51.8638 67.6071 51.6531 67.5306 51.4519 67.4351Z" fill="#FFCB00"/>
<path fill-rule="evenodd" clip-rule="evenodd" d="M54.6896 67.4349V67.903C54.2298 68.1227 53.6742 68.2469 53.0708 68.2469C52.4673 68.2469 51.9117 68.1227 51.4519 67.903V67.4349C51.9117 67.6546 52.4673 67.7788 53.0708 67.7788C53.6742 67.7788 54.2298 67.6546 54.6896 67.4349Z" fill="#EE7C00"/>
<path fill-rule="evenodd" clip-rule="evenodd" d="M59.2396 63.2607C60.1304 63.2607 60.8584 63.9866 60.8584 64.875V64.8845C60.3987 65.1042 59.8431 65.2284 59.2396 65.2284C58.6361 65.2284 58.0805 65.1042 57.6207 64.8845V64.875C57.6207 63.9866 58.3487 63.2607 59.2396 63.2607Z" fill="#FFEC00"/>
<path fill-rule="evenodd" clip-rule="evenodd" d="M57.6207 64.8943V64.8847V64.8465C57.6399 64.1397 58.1188 63.5474 58.7606 63.3469L58.799 63.3373L58.8373 63.3278L58.866 63.3182H58.8756L58.9043 63.3086H58.9139L58.9522 63.2991L58.981 63.2895H58.9905H59.0193H59.0289H59.0576H59.0767H59.1055H59.1342C59.1246 63.2991 58.4254 63.6907 58.3008 64.4453C58.2625 64.6841 58.2529 64.9325 58.2529 65.1426C58.0326 65.0567 57.8219 64.9803 57.6207 64.8943Z" fill="#FFCB00"/>
<path fill-rule="evenodd" clip-rule="evenodd" d="M60.8584 64.8941V65.3621C60.3987 65.5818 59.8431 65.706 59.2396 65.706C58.6361 65.706 58.0805 65.5818 57.6207 65.3621V64.8941C58.0805 65.1138 58.6361 65.238 59.2396 65.238C59.8431 65.238 60.3987 65.1042 60.8584 64.8941Z" fill="#EE7C00"/>
<path fill-rule="evenodd" clip-rule="evenodd" d="M22.7722 63.6715C24.688 62.6016 28.0598 61.7133 32.2938 60.8536C33.0026 60.7199 33.7115 60.5766 34.4012 60.4429V60.4811C34.3916 60.9014 34.3916 61.3408 34.3916 61.7611C34.6789 63.2703 38.0125 64.1586 42.4188 64.3592C42.8978 64.3879 43.3959 64.407 43.894 64.4165C38.1849 64.4452 33.8743 64.6171 24.324 67.3872C22.2549 66.2696 21.4503 64.9992 22.7722 63.6715Z" fill="#4FA26C"/>
<path fill-rule="evenodd" clip-rule="evenodd" d="M44.4112 72.1345C32.514 72.1345 22.6955 68.7722 21.2012 66.4033C21.0862 66.2027 21.0287 66.0308 21.0096 65.8875C21.0096 65.8589 21 65.8302 21 65.8111C21 65.0087 21.6322 64.3114 22.7721 63.681C18.9213 67.5209 33.06 70.9692 44.4112 70.9692C55.772 70.9692 69.9106 67.5114 66.0503 63.6714C67.1902 64.3019 67.8224 65.0087 67.8224 65.8015C67.8224 65.8302 67.8224 65.8589 67.8128 65.878C67.7937 66.0212 67.7362 66.1932 67.6212 66.3938C66.1365 68.7722 56.3084 72.1345 44.4112 72.1345Z" fill="#006126"/>
<path fill-rule="evenodd" clip-rule="evenodd" d="M29.3147 63.2607C30.2055 63.2607 30.9335 63.9866 30.9335 64.875V64.8845C30.4737 65.1042 29.9181 65.2284 29.3147 65.2284C28.7112 65.2284 28.1556 65.1042 27.6958 64.8845V64.875C27.6958 63.9866 28.4238 63.2607 29.3147 63.2607Z" fill="#FFEC00"/>
<path fill-rule="evenodd" clip-rule="evenodd" d="M27.6958 64.8943V64.8847V64.8465C27.715 64.1397 28.1939 63.5474 28.8357 63.3469L28.874 63.3373L28.9123 63.3278L28.9411 63.3182H28.9507L28.9794 63.3086H28.989H28.9986L29.0369 63.2991L29.0656 63.2895H29.0752H29.1039H29.1135H29.1422H29.1614H29.1901H29.2189C29.2093 63.2991 28.51 63.6907 28.3855 64.4453C28.3472 64.6841 28.3376 64.9325 28.3376 65.1426C28.1077 65.0567 27.8874 64.9803 27.6958 64.8943Z" fill="#FFCB00"/>
<path fill-rule="evenodd" clip-rule="evenodd" d="M30.9335 64.8941V65.3621C30.4737 65.5818 29.9181 65.706 29.3147 65.706C28.7112 65.706 28.1556 65.5818 27.6958 65.3621V64.8941C28.1556 65.1138 28.7112 65.238 29.3147 65.238C29.9086 65.238 30.4737 65.1042 30.9335 64.8941Z" fill="#EE7C00"/>
</svg>
