<svg width="170" height="115" viewBox="0 0 170 115" fill="none" xmlns="http://www.w3.org/2000/svg">
<g clip-path="url(#clip0_9422_29171)">
<path fill-rule="evenodd" clip-rule="evenodd" d="M9.05503 53.192C9.05237 50.2263 10.2302 47.3811 12.3294 45.2822C14.4287 43.1833 17.2773 42.0027 20.2487 42V46.0399C18.8306 46.0419 17.4449 46.4638 16.2671 47.2522C15.0893 48.0406 14.1724 49.1601 13.6324 50.4689C13.0925 51.7777 12.9538 53.2169 13.2338 54.6045C13.5139 55.992 14.2002 57.2654 15.2058 58.2635C16.2113 59.2615 17.491 59.9393 18.8828 60.2111C20.2746 60.4829 21.7158 60.3364 23.0242 59.7901C24.3325 59.2439 25.449 58.3226 26.2323 57.1427C27.0157 55.9628 27.4306 54.5775 27.4247 53.1621H31.4225C31.4673 54.6593 31.2105 56.1502 30.6674 57.5466C30.1242 58.9429 29.3058 60.2162 28.2606 61.2911C27.2153 62.3659 25.9645 63.2204 24.5823 63.804C23.2001 64.3875 21.7146 64.6882 20.2138 64.6882C18.713 64.6882 17.2275 64.3875 15.8452 63.804C14.463 63.2204 13.2122 62.3659 12.167 61.2911C11.1217 60.2162 10.3033 58.9429 9.76016 57.5466C9.21702 56.1502 8.96025 54.6593 9.00506 53.1621L9.05503 53.192Z" fill="#42E25D"/>
<path d="M15.3115 53.1924C15.3115 52.0385 15.7124 50.9204 16.4459 50.0285C17.1793 49.1365 18.1999 48.526 19.3338 48.3009C20.4677 48.0758 21.6447 48.2501 22.6643 48.794C23.6839 49.3379 24.4829 50.2179 24.9254 51.2839C25.3678 52.35 25.4261 53.5361 25.0905 54.6403C24.7549 55.7444 24.0461 56.6983 23.0849 57.3394C22.1236 57.9804 20.9694 58.269 19.8189 58.1559C18.6683 58.0428 17.5927 57.5351 16.7752 56.7192C16.3111 56.256 15.943 55.7062 15.6919 55.1011C15.4408 54.4959 15.3115 53.8474 15.3115 53.1924Z" fill="#238840"/>
<path d="M23.7367 46.8975C23.7367 46.2373 23.9661 45.5974 24.3859 45.0871C24.8057 44.5768 25.3898 44.2276 26.0387 44.099C26.6876 43.9705 27.3611 44.0705 27.9443 44.3822C28.5275 44.6938 28.9844 45.1976 29.2371 45.8079C29.4897 46.4181 29.5225 47.0969 29.3298 47.7285C29.137 48.3602 28.7308 48.9055 28.1803 49.2716C27.6297 49.6378 26.969 49.802 26.3107 49.7362C25.6525 49.6705 25.0374 49.379 24.5704 48.9113C24.3056 48.6468 24.0956 48.3328 23.9526 47.9873C23.8095 47.6417 23.7362 47.2714 23.7367 46.8975Z" fill="#42E25D"/>
<path d="M39.1182 55.985C38.7184 57.8603 38.6585 58.3291 38.4086 59.8553L38.2587 59.965L34.4209 60.0548L34.3109 59.9051C34.9705 57.3116 35.1105 56.8029 35.7501 53.9201L35.99 52.8328C36.3177 51.4676 36.5713 50.0857 36.7495 48.6932L36.8995 48.5436C38.7684 48.3042 39.1882 48.2344 40.8073 47.9251L40.9372 48.0748C40.4075 50.2294 40.2076 51.0673 39.478 54.2992L39.1182 55.985ZM41.337 45.8703L41.1771 46.0498L37.5491 46.5586L37.4092 46.399L38.0588 43.4065L38.2587 43.2469L41.9166 42.7681L42.0466 42.9277L41.337 45.8703Z" fill="white"/>
<path d="M46.574 49.102C47.4302 48.4295 48.4831 48.0547 49.5724 48.0347C51.7911 48.0347 53.2703 49.7005 53.2703 52.5135C53.2658 54.302 52.6526 56.036 51.5313 57.4311C49.3425 60.1044 46.5341 60.0845 44.2154 60.0845L43.1559 65.3713L42.996 65.481H41.4969C40.7373 65.481 40.0777 65.481 39.2481 65.5508L39.1382 65.3912L40.4275 60.1942L40.8272 58.5084C41.267 56.5134 41.7167 54.5184 42.1165 52.5833C42.4019 51.3397 42.6154 50.0808 42.7562 48.8127L42.9061 48.6631L46.7039 48.0446L46.8339 48.1943L46.574 49.102ZM44.7751 57.5808C44.9515 57.5906 45.1283 57.5906 45.3048 57.5808C46.1933 57.543 47.0471 57.2253 47.7434 56.673C48.2824 56.1579 48.7103 55.5383 49.0008 54.8521C49.2912 54.166 49.4381 53.4279 49.4324 52.683C49.4324 50.8177 48.2331 50.5982 47.7834 50.5982C47.1993 50.6455 46.6442 50.872 46.1943 51.2466L44.7751 57.5808Z" fill="white"/>
<path d="M64.0443 58.8577C62.7987 59.8439 61.2343 60.3406 59.6468 60.2542C58.2955 60.3193 56.9636 59.9138 55.8789 59.1071C55.3836 58.6383 54.9978 58.0663 54.7491 57.4319C54.5003 56.7974 54.3947 56.1161 54.4397 55.4363C54.4397 53.4413 55.529 48.0648 61.2858 48.0648C62.6739 47.9762 64.0464 48.3986 65.1437 49.2518C65.6316 49.7074 66.0107 50.2667 66.2529 50.8883C66.4951 51.5099 66.5942 52.1778 66.5429 52.8428C66.5351 53.5898 66.4378 54.3333 66.253 55.0572C65.954 56.5314 65.1779 57.8667 64.0443 58.8577ZM62.845 52.3341C62.845 51.5162 62.5751 50.3391 61.2658 50.3391C60.9132 50.341 60.5657 50.4239 60.2503 50.5813C59.9349 50.7387 59.66 50.9664 59.4469 51.2468C58.6365 52.659 58.1869 54.2486 58.1376 55.8752C58.1163 56.2137 58.1639 56.553 58.2775 56.8727C58.3851 57.1973 58.5974 57.4772 58.8814 57.6685C59.1653 57.8598 59.5048 57.9518 59.8466 57.9301C60.1629 57.9137 60.4717 57.8285 60.7515 57.6803C61.0312 57.5321 61.275 57.3245 61.4657 57.0722C62.1036 56.2376 62.5103 55.2503 62.6451 54.2094C62.7739 53.5924 62.8409 52.9642 62.845 52.3341Z" fill="white"/>
<path d="M73.569 59.7954L73.3991 59.965C72.7436 60.1191 72.0735 60.2027 71.4002 60.2144C69.4913 60.2144 68.0521 59.6159 68.0521 57.6209C68.1739 56.324 68.4182 55.0415 68.7817 53.7905L69.5113 50.7979H67.9621L67.8322 50.6184L68.4719 48.384L68.6418 48.2842H70.1009L70.7306 45.4613L70.8905 45.3017C72.5496 44.9227 72.9993 44.8129 74.5285 44.374L74.6384 44.4638L74.1487 46.2992L73.669 48.2942H75.9277L76.0376 48.4538C75.7278 49.3915 75.6379 49.6309 75.348 50.6683L75.1681 50.8279H73.1692L72.2397 54.7082C72.0479 55.3951 71.9076 56.0952 71.82 56.8029C71.82 57.5112 72.3897 57.7107 72.8194 57.7107C73.2629 57.6988 73.7002 57.604 74.1087 57.4314L74.2386 57.5411L73.569 59.7954Z" fill="white"/>
<path d="M85.922 56.5634C85.7621 57.0422 85.6322 57.5609 85.5022 58.0197C85.3723 58.4786 85.2824 58.9075 85.1724 59.3264L85.0525 59.4561C83.8829 60.0521 82.5758 60.3275 81.2646 60.2541C78.1364 60.2541 77.1469 59.087 76.7472 58.5983C76.0261 57.6616 75.6709 56.4952 75.7477 55.3165C75.7477 52.0646 77.7466 48.0147 82.394 48.0147C83.3676 47.9828 84.3325 48.2063 85.1924 48.6631C85.7749 49.0247 86.245 49.5409 86.5504 50.1539C86.8557 50.767 86.9842 51.4527 86.9215 52.1344C86.9055 53.0181 86.7779 53.8961 86.5417 54.7479L86.3618 54.8576C83.1436 54.8576 82.1741 54.8576 79.3657 54.9175V55.6257C79.3657 56.9324 80.2452 57.6905 82.0442 57.6905C83.3699 57.6554 84.6531 57.2169 85.7221 56.4337L85.922 56.5634ZM83.6333 52.6631C83.7066 52.3352 83.7501 52.0013 83.7632 51.6656C83.774 51.4672 83.742 51.2688 83.6692 51.0838C83.5965 50.8989 83.4848 50.7317 83.3417 50.5936C83.1986 50.4555 83.0274 50.3497 82.8398 50.2834C82.6521 50.2171 82.4524 50.1918 82.2541 50.2092C81.9594 50.2115 81.6683 50.2738 81.3985 50.3921C81.1287 50.5104 80.8859 50.6824 80.6849 50.8975C80.189 51.398 79.8428 52.0268 79.6855 52.713L83.6333 52.6631Z" fill="white"/>
<path d="M95.7465 53.0622C96.9858 56.3639 97.1857 56.8427 98.2951 59.7454L98.1352 59.9649L94.4372 60.0547L94.2573 59.925C93.8775 58.6582 92.7482 54.9874 92.1985 53.551C91.5489 56.3839 91.3789 57.1819 90.8892 59.8352L90.7293 59.9649L87.1413 60.0547L87.0314 59.905L88.3806 54.4387L88.9803 51.7554C89.6499 48.8627 90.4895 44.8727 90.7093 43.127L90.8692 42.9774C92.5283 42.7679 93.038 42.6881 94.7671 42.3789L94.877 42.5285L94.1274 45.521L92.2884 53.2218C93.6377 51.6956 94.6971 50.4287 96.2862 48.3938L96.5061 48.2841C98.0552 48.2841 98.505 48.2841 100.134 48.2143L100.204 48.4338C99.9442 48.723 98.5849 50.0796 98.2951 50.4288L95.7465 53.0622Z" fill="white"/>
<path d="M110.948 52.6432C110.109 56.2243 109.949 57.0223 109.509 59.8552L109.359 59.9649L106.011 60.0547L105.901 59.925L106.051 58.9275C105.722 59.2498 105.34 59.5131 104.921 59.7056C104.263 60.0203 103.543 60.1871 102.813 60.1943C102.206 60.2042 101.607 60.0511 101.08 59.751C100.552 59.451 100.115 59.0149 99.8143 58.4886C99.406 57.686 99.2034 56.795 99.2246 55.8951C99.2237 54.8326 99.4354 53.7806 99.8473 52.8008C100.259 51.821 100.863 50.9331 101.623 50.1893C103.712 48.2841 106.151 48.2642 108.1 48.1943H111.868L112.007 48.3739L110.948 52.6432ZM107.83 50.6981C107.265 50.6433 106.696 50.6736 106.141 50.7878C103.752 51.4063 103.042 54.1894 103.042 55.516C103.042 57.4412 104.172 57.7105 104.702 57.7105C105.335 57.7005 105.94 57.4468 106.391 57.0023L107.83 50.6981Z" fill="white"/>
<path d="M112.307 59.8753L113.477 54.8877L114.386 50.8379C114.786 49.182 115.166 47.4962 115.495 45.8504C115.785 44.4539 115.875 43.9451 116.005 42.9277L116.185 42.7681L118.614 42.3491L118.724 42.5087L118.104 44.9626L117.105 49.2119C118.069 48.5837 119.191 48.2381 120.343 48.2144C120.895 48.2025 121.444 48.307 121.953 48.5212C122.462 48.7353 122.921 49.0543 123.298 49.4572C123.675 49.8601 123.963 50.3379 124.143 50.8595C124.322 51.381 124.39 51.9345 124.341 52.4838C124.329 54.3094 123.678 56.0736 122.502 57.4713C120.503 59.7556 118.044 59.9052 115.186 60.0149H112.417L112.307 59.8753ZM115.006 58.2593H115.366C116.831 58.3704 118.296 58.0217 119.553 57.2618C120.276 56.7436 120.87 56.0667 121.289 55.2833C121.709 54.4998 121.942 53.6308 121.972 52.7431C122.019 52.3794 121.984 52.0099 121.87 51.6612C121.756 51.3126 121.566 50.9935 121.314 50.7272C121.061 50.4608 120.753 50.2538 120.41 50.1212C120.068 49.9885 119.7 49.9335 119.333 49.9601C118.381 50.0002 117.462 50.3233 116.695 50.8877L115.006 58.2593Z" fill="white"/>
<path d="M136.604 52.9528C135.834 56.3643 135.674 57.2022 135.234 59.8356L135.075 59.9852L132.996 60.0351L132.886 59.8755L133.036 58.9977C132.136 59.7646 130.98 60.1668 129.797 60.1249C129.232 60.1414 128.669 60.0377 128.146 59.8208C127.623 59.6039 127.152 59.2786 126.765 58.8665C126.378 58.4544 126.082 57.9649 125.899 57.4303C125.715 56.8958 125.647 56.3284 125.7 55.7658C125.759 54.0306 126.379 52.3612 127.469 51.0077C129.608 48.5938 132.416 48.4541 134.455 48.4541H137.513L137.623 48.6336L136.604 52.9528ZM134.965 50.1399H133.965C132.738 50.0908 131.526 50.4142 130.487 51.0676C129.775 51.6013 129.192 52.2882 128.782 53.0774C128.372 53.8665 128.145 54.7376 128.118 55.6261C128.084 55.9858 128.127 56.3485 128.243 56.6905C128.36 57.0325 128.547 57.3461 128.794 57.6108C129.04 57.8754 129.339 58.0852 129.673 58.2262C130.006 58.3672 130.365 58.4364 130.727 58.4291C131.405 58.4305 132.071 58.2515 132.656 57.9104C132.913 57.7391 133.157 57.549 133.385 57.3418L134.965 50.1399Z" fill="white"/>
<path d="M147.597 59.8553L147.428 59.985L145.159 60.0548L145.079 59.9052L146.008 55.9152L146.558 53.4214C146.687 52.9053 146.761 52.377 146.778 51.8453C146.778 50.5187 145.958 50.0798 144.919 50.0798C143.815 50.1158 142.757 50.5277 141.921 51.2468C141.101 54.9675 140.831 56.1446 140.122 59.8353L139.972 59.965L137.713 60.0348L137.603 59.8852L138.503 56.0748L138.862 54.4189C139.318 52.571 139.672 50.6995 139.922 48.8129L140.082 48.6633C141.081 48.5236 141.371 48.4837 142.43 48.2643L142.54 48.4139L142.231 49.5511C143.32 48.6939 144.661 48.2173 146.048 48.1945C146.449 48.1513 146.854 48.1944 147.236 48.3208C147.619 48.4472 147.97 48.654 148.265 48.9272C148.561 49.2004 148.794 49.5337 148.95 49.9046C149.105 50.2755 149.179 50.6754 149.167 51.0773C149.058 52.5397 148.814 53.9889 148.437 55.4064L148.107 56.9127L147.597 59.8553Z" fill="white"/>
<path d="M155.863 53.2617L159.301 59.7953L159.171 59.9649L156.712 60.0347L156.532 59.905C155.953 58.5285 155.803 58.2193 155.003 56.6033L153.454 53.4412C152.805 56.2542 152.675 56.9125 152.115 59.8352L151.965 59.9649L149.726 60.0148L149.636 59.8851L150.966 54.1894L151.675 51.1968C152.005 49.7505 152.315 48.314 152.675 46.8976C153.094 44.9026 153.204 44.1545 153.404 42.9076L153.554 42.7779L155.973 42.3789L156.103 42.5285L155.423 45.2318L153.554 53.132C154.084 52.6632 154.404 52.3839 155.133 51.6756C155.863 50.9674 157.792 48.9724 158.132 48.5933L158.381 48.4637H160.93L161 48.6632L159.781 49.6607C159.421 49.95 159.201 50.1694 158.781 50.5485L155.863 53.2617Z" fill="white"/>
<path fill-rule="evenodd" clip-rule="evenodd" d="M134.605 66.4087L133.825 69.8301C133.598 70.046 133.319 70.2005 133.016 70.279C132.859 70.3183 132.698 70.3384 132.536 70.3389C132.276 70.3389 131.357 70.2491 131.357 68.9823C131.374 68.3451 131.594 67.73 131.986 67.2267C132.285 66.9166 132.651 66.6803 133.057 66.5365C133.463 66.3928 133.897 66.3456 134.325 66.3987L134.605 66.4087ZM135.854 65.5708H134.385C133.156 65.5708 131.666 65.6207 130.717 67.2566C130.389 67.8242 130.213 68.4667 130.207 69.1219C130.186 69.3816 130.22 69.6429 130.307 69.8886C130.394 70.1342 130.533 70.3586 130.713 70.5471C130.893 70.7356 131.112 70.8838 131.353 70.982C131.595 71.0802 131.855 71.1262 132.116 71.1169C132.643 71.1265 133.161 70.9808 133.605 70.698L133.465 71.2466C133.315 71.8451 133.056 72.9324 131.736 72.9324C131.424 72.9444 131.112 72.8829 130.828 72.753C130.543 72.6231 130.293 72.4283 130.097 72.1842H130.017L129.578 72.8526V72.9423C129.757 73.131 129.967 73.2894 130.197 73.4112C130.695 73.6296 131.233 73.7384 131.776 73.7304C132.158 73.7546 132.541 73.6957 132.899 73.558C133.256 73.4202 133.579 73.2068 133.845 72.9324C134.334 72.2083 134.639 71.3764 134.735 70.5084L135.035 69.102C135.404 67.4262 135.504 67.0072 135.834 65.6705L135.854 65.5708Z" fill="white"/>
<path fill-rule="evenodd" clip-rule="evenodd" d="M137.513 70.01L137.743 69.0125C137.815 68.297 138.066 67.611 138.473 67.0175C138.562 66.91 138.674 66.8225 138.799 66.7606C138.925 66.6988 139.062 66.6639 139.202 66.6584C139.359 66.6619 139.512 66.7104 139.642 66.798H139.752L140.162 65.8005V65.7107C140.01 65.632 139.843 65.5878 139.672 65.5811C139.455 65.6044 139.246 65.6734 139.059 65.7835C138.871 65.8935 138.708 66.0421 138.583 66.2195C138.48 66.3495 138.387 66.4861 138.303 66.6284L138.533 65.7107L138.483 65.6309C138.111 65.7158 137.733 65.7758 137.353 65.8105L137.273 65.8803C137.145 66.7968 136.968 67.7058 136.744 68.6035L136.514 69.601L136.124 71.1371L136.174 71.197H137.273L137.363 71.1172L137.513 70.01Z" fill="white"/>
<path fill-rule="evenodd" clip-rule="evenodd" d="M144.01 68.4042C143.82 69.262 143.4 70.3992 142.281 70.3992C142.127 70.402 141.974 70.3716 141.833 70.3101C141.692 70.2486 141.566 70.1575 141.463 70.0429C141.361 69.9283 141.284 69.7929 141.239 69.6461C141.194 69.4993 141.181 69.3445 141.201 69.1922C141.201 68.8032 141.411 66.1997 143.07 66.1997C143.46 66.1997 144.139 66.3792 144.139 67.4366C144.14 67.7635 144.097 68.089 144.01 68.4042ZM145.109 68.7333C145.211 68.3695 145.265 67.9939 145.269 67.6161C145.289 67.3258 145.246 67.0345 145.142 66.7627C145.037 66.4909 144.875 66.2452 144.665 66.0427C144.456 65.8403 144.204 65.686 143.929 65.5908C143.653 65.4955 143.36 65.4616 143.07 65.4914C140.771 65.4914 140.072 67.7658 140.072 69.0426C140.034 69.3353 140.064 69.6329 140.16 69.9122C140.256 70.1915 140.414 70.445 140.624 70.6533C140.834 70.8615 141.089 71.0189 141.369 71.1132C141.649 71.2075 141.947 71.2362 142.24 71.1972C142.935 71.1977 143.607 70.9493 144.133 70.4971C144.66 70.0448 145.006 69.4189 145.109 68.7333Z" fill="white"/>
<path fill-rule="evenodd" clip-rule="evenodd" d="M150.746 69.4014L150.996 68.2543L151.605 65.6708V65.6009H150.536L150.456 65.6708C150.316 66.4388 150.276 66.6683 150.016 67.8653L149.616 69.6608C149.228 70.0328 148.715 70.2493 148.177 70.2692C148.06 70.2767 147.943 70.259 147.833 70.2175C147.724 70.1757 147.625 70.111 147.542 70.0278C147.46 69.9447 147.396 69.8449 147.356 69.7352C147.315 69.6253 147.299 69.5081 147.308 69.3914C147.351 68.9171 147.431 68.4468 147.548 67.985C147.597 67.7855 148.047 65.99 148.127 65.6209L148.077 65.561H147.018L146.948 65.6309C146.848 66.1994 146.818 66.3391 146.648 67.0473L146.408 68.0448C146.265 68.5628 146.178 69.0944 146.148 69.6308C146.141 69.8309 146.178 70.03 146.255 70.2149C146.331 70.3997 146.447 70.5658 146.594 70.7021C146.741 70.8383 146.916 70.9414 147.106 71.0044C147.296 71.0674 147.498 71.0889 147.697 71.0673C148.334 71.0474 148.946 70.8157 149.436 70.4089L149.307 70.9276L149.356 70.9974H150.356L150.426 70.9276L150.746 69.4014Z" fill="white"/>
<path fill-rule="evenodd" clip-rule="evenodd" d="M153.974 66.9077C154.303 66.5848 154.742 66.3993 155.203 66.389C155.375 66.3843 155.546 66.4171 155.704 66.4853C155.862 66.5535 156.003 66.6553 156.117 66.7836C156.232 66.9117 156.317 67.0635 156.366 67.2281C156.415 67.3926 156.427 67.5658 156.403 67.7357C156.397 68.0912 156.318 68.4417 156.172 68.7659C156.026 69.0901 155.814 69.3811 155.552 69.6211C155.289 69.8611 154.979 70.045 154.643 70.1616C154.306 70.2782 153.95 70.325 153.594 70.2992H153.164L153.974 66.9077ZM154.254 65.601V65.5212L153.124 65.7008L153.054 65.7606C152.965 66.2893 152.915 66.6584 152.725 67.596C152.535 68.5337 152.325 69.4015 152.125 70.3092L151.915 71.1371L151.335 73.5312L151.385 73.601H152.495L152.565 73.5411C152.805 72.2643 152.855 72.0349 153.074 71.0773H153.594C154.199 71.1174 154.806 71.0156 155.365 70.78C155.923 70.5444 156.419 70.1817 156.812 69.7207C157.264 69.111 157.509 68.3739 157.512 67.616C157.537 67.3518 157.507 67.0854 157.423 66.8334C157.34 66.5814 157.206 66.3493 157.028 66.1517C156.851 65.9541 156.635 65.7951 156.393 65.6849C156.151 65.5747 155.889 65.5156 155.623 65.5112C155.078 65.5213 154.55 65.7028 154.114 66.0299L154.254 65.601Z" fill="white"/>
<path fill-rule="evenodd" clip-rule="evenodd" d="M114.346 68.404C114.282 68.9174 114.086 69.4055 113.776 69.8204C113.682 69.9479 113.561 70.0526 113.421 70.1268C113.28 70.201 113.125 70.2429 112.967 70.2494C112.798 70.2604 112.63 70.2157 112.489 70.1219C112.348 70.0281 112.242 69.8906 112.187 69.7307C112.129 69.5746 112.105 69.4079 112.117 69.2419C112.14 68.432 112.363 67.6403 112.767 66.9376C112.873 66.7977 113.011 66.6844 113.169 66.6065C113.327 66.5286 113.5 66.4883 113.676 66.4888C114.326 66.4888 114.456 67.0573 114.456 67.4863C114.447 67.7948 114.41 68.102 114.346 68.404ZM116.155 68.8229C116.246 68.4642 116.293 68.0957 116.295 67.7257C116.321 67.3955 116.272 67.0638 116.153 66.7548C116.034 66.4459 115.847 66.1675 115.605 65.9401C115.062 65.5081 114.38 65.2882 113.686 65.3217C110.818 65.3217 110.278 67.975 110.278 68.9825C110.25 69.3259 110.301 69.6712 110.425 69.9925C110.55 70.3137 110.746 70.6028 110.998 70.8379C111.536 71.2376 112.197 71.4385 112.867 71.4065C113.656 71.4505 114.434 71.2058 115.056 70.7182C115.626 70.2074 116.012 69.5241 116.155 68.773V68.8229Z" fill="white"/>
<path fill-rule="evenodd" clip-rule="evenodd" d="M119.993 69.8406L119.923 69.7807C119.724 69.8663 119.51 69.9105 119.293 69.9104C119.053 69.9104 118.774 69.8106 118.774 69.4615C118.818 69.1241 118.888 68.7905 118.984 68.464L119.443 66.5388H120.443L120.533 66.469C120.683 65.9503 120.723 65.8306 120.872 65.3618V65.2919H119.753L119.993 64.2944L120.233 63.3867L120.163 63.3169C119.403 63.5363 119.163 63.5962 118.364 63.7857L118.284 63.8555L117.964 65.282H117.155L116.805 66.4091L116.875 66.4889H117.644L117.284 67.9952C117.099 68.6167 116.975 69.2548 116.915 69.9004C116.915 70.8979 117.634 71.1872 118.584 71.1872C118.92 71.1838 119.255 71.1436 119.583 71.0675L119.673 70.9777L119.993 69.8406Z" fill="white"/>
<path fill-rule="evenodd" clip-rule="evenodd" d="M123.301 66.9078C123.525 66.7152 123.806 66.5998 124.101 66.5786C124.321 66.5786 124.91 66.6983 124.91 67.5761C124.916 67.9484 124.844 68.3179 124.699 68.6612C124.555 69.0045 124.341 69.3143 124.071 69.5711C123.728 69.8501 123.303 70.008 122.861 70.02H122.602L123.301 66.9078ZM123.621 65.3317L123.561 65.252L121.672 65.5612L121.592 65.641C121.524 66.2687 121.417 66.8917 121.272 67.5063C121.072 68.5038 120.852 69.5013 120.633 70.4988L120.433 71.3367L119.793 73.9202L119.853 74H121.712L121.792 73.9502L122.322 71.3168C122.99 71.4107 123.671 71.3397 124.305 71.1102C124.939 70.8806 125.507 70.4995 125.96 70.0001C126.502 69.3075 126.801 68.4554 126.809 67.5761C126.809 66.1796 126.07 65.3517 124.97 65.3517C124.432 65.361 123.913 65.5468 123.491 65.8804L123.621 65.3317Z" fill="white"/>
</g>
<defs>
<clipPath id="clip0_9422_29171">
<rect width="152" height="32" fill="white" transform="translate(9 42)"/>
</clipPath>
</defs>
</svg>
