<svg width="182" height="127" viewBox="0 0 182 127" fill="none" xmlns="http://www.w3.org/2000/svg">
<path d="M90.9944 46.9093C89.0484 46.9093 87.4675 45.3108 87.4675 43.3384C87.4675 41.3666 89.0484 39.7683 90.9944 39.7683C92.946 39.7683 94.5269 41.3666 94.5269 43.3384C94.5269 45.3108 92.946 46.9093 90.9944 46.9093ZM109.33 47.3577L99.5603 37.6493C97.1921 35.296 94.0989 34.0318 90.9944 34C87.8955 34.0318 84.8023 35.296 82.4339 37.6493L72.658 47.3577C67.8643 52.1229 67.8643 59.8457 72.658 64.6111L73.9022 65.8373C76.0937 68.0214 87.5359 73.0055 88.5632 73.4244V54.5708C88.5632 53.9937 88.1637 53.4756 87.6215 53.2616L81.5266 50.854C81.0187 51.2846 80.368 51.546 79.6489 51.546C78.0397 51.546 76.727 50.2205 76.727 48.5863C76.727 46.9521 78.0397 45.6287 79.6489 45.6287C81.1499 45.6287 82.3712 46.7604 82.5539 48.2234L88.4889 50.5679C89.2937 50.8858 90.1439 51.0502 90.9944 51.0612C91.856 51.0502 92.7064 50.8858 93.5111 50.5679L99.4404 48.2234C99.6174 46.7604 100.85 45.6287 102.345 45.6287C103.96 45.6287 105.273 46.9521 105.273 48.5863C105.273 50.2205 103.96 51.546 102.345 51.546C101.632 51.546 100.97 51.2846 100.468 50.854L94.3727 53.2616C93.8364 53.4756 93.4369 53.9937 93.4369 54.5708V73.4244C94.4584 73.0055 105.895 68.0214 108.098 65.8373L109.33 64.6111C114.124 59.8457 114.124 52.1229 109.33 47.3577V47.3577Z" fill="#7FBB35"/>
<path d="M60.0001 92.0298H62.031V79.1813H60.0001V92.0298Z" fill="white"/>
<path d="M69.3651 92.0298H67.3335V80.9936L63.6013 81.0122V79.1817H73.1203V81.0122L69.3651 80.9936V92.0298Z" fill="white"/>
<path d="M85.8297 83.2614C85.8297 82.5742 85.6241 82.0282 85.2417 81.6203C84.8537 81.2147 84.283 81.0122 83.5412 81.0122H81.207V85.5876H83.4326C84.1803 85.5876 84.7681 85.3805 85.1961 84.9677C85.6127 84.5551 85.8297 83.985 85.8297 83.2614V83.2614ZM87.8613 83.2614C87.8613 83.8453 87.7528 84.3884 87.5473 84.891C87.342 85.3935 87.045 85.831 86.6571 86.2056C86.2804 86.5818 85.8125 86.8772 85.2646 87.0914C84.7223 87.3076 84.1117 87.4157 83.4326 87.4157H81.207V92.0298H79.1639V79.1817H83.5412C84.2202 79.1817 84.8251 79.2873 85.3615 79.4972C85.8981 79.7068 86.3488 79.9954 86.7141 80.3651C87.0908 80.7323 87.3761 81.1627 87.5702 81.659C87.7641 82.1547 87.8613 82.6889 87.8613 83.2614V83.2614Z" fill="white"/>
<path d="M94.23 84.3659L93.3625 81.3162H93.3283L92.4609 84.3659L91.5193 87.0914H95.1717L94.23 84.3659ZM99.0182 92.0298H96.9066L95.7937 88.8651H90.8745L89.7787 92.0298H87.6729L92.3068 79.1817H94.3842L99.0182 92.0298Z" fill="white"/>
<path d="M107.653 83.1078C107.653 82.4726 107.459 81.9653 107.071 81.5845C106.677 81.2036 106.095 81.0122 105.313 81.0122H102.693V85.2811H105.256C106.015 85.2811 106.597 85.0848 107.019 84.6909C107.447 84.2983 107.653 83.7686 107.653 83.1078ZM109.69 83.1078C109.69 83.9983 109.439 84.7693 108.937 85.4254C108.435 86.0793 107.761 86.5391 106.917 86.8075L109.918 92.0298H107.727L104.902 87.1116H102.693V92.0298H100.656V79.1817H105.313C106.004 79.1817 106.625 79.2832 107.173 79.4857C107.716 79.6888 108.178 79.9705 108.549 80.3243C108.92 80.6825 109.199 81.0974 109.393 81.5752C109.593 82.0507 109.69 82.5626 109.69 83.1078V83.1078Z" fill="white"/>
<path d="M116.493 85.2043L122 92.0298H119.586L114.627 85.8356V84.6522L119.495 79.1817H121.829L116.493 85.2043ZM113.913 92.0298H111.876V79.1817H113.913V92.0298Z" fill="white"/>
</svg>
