<svg width="170" height="115" viewBox="0 0 170 115" fill="none" xmlns="http://www.w3.org/2000/svg">
<g clip-path="url(#clip0_9422_29118)">
<path d="M67.9158 71.9619C68.1778 71.2598 68.9508 70.9243 69.6549 71.162C70.3402 71.3934 71.0403 71.5636 71.7743 71.5636C72.7862 71.5636 73.6535 71.3736 74.3763 70.9938C75.7777 70.3398 76.2969 68.6779 76.8917 67.3549L69.8528 48.3796C69.6074 47.7182 70.091 47.0127 70.7898 47.0127H74.9803C75.5524 47.0127 76.061 47.3815 76.2443 47.9294L79.9274 58.9374L83.6105 47.9294C83.794 47.3815 84.3024 47.0127 84.8746 47.0127H88.7979C89.4986 47.0127 89.9824 47.7218 89.7334 48.3839L81.7923 69.5031C80.8671 71.8997 79.6528 73.741 78.1494 75.0271C76.646 76.3423 74.6655 76.9999 72.2079 76.9999C70.7593 76.9999 69.3421 76.7322 67.9818 76.2661C67.1483 75.9805 66.7686 75.0366 67.0792 74.2042L67.9158 71.9619Z" fill="#1B9684"/>
<path d="M61.3392 65.5574C59.8084 67.1049 57.8648 67.5398 55.6792 67.5303C51.7952 67.5133 48.566 65.5891 47.288 61.8748C46.323 59.0703 46.3026 55.689 47.288 52.8874C48.5828 49.2062 51.7919 47.0127 55.7013 47.0127C57.8016 47.0127 59.7634 47.3133 61.3392 48.7225V48.3617C61.3392 47.6166 61.9366 47.0127 62.6736 47.0127H67.4242V67.5303H62.6736C61.9366 67.5303 61.3392 66.9263 61.3392 66.1813V65.5574ZM60.5152 61.1296C61.2958 60.1065 61.6862 58.8206 61.6862 57.2715C61.6862 55.5179 61.2525 54.188 60.3851 53.282C58.6876 51.4475 55.436 51.4182 53.8799 53.4574C52.2937 55.5542 52.3343 59.0911 53.9233 61.1734C55.514 63.1983 58.9538 63.1756 60.5152 61.1296Z" fill="#1B9684"/>
<path d="M35.8879 39.1216H30.2701C28.7754 39.1216 28.0281 39.1216 27.4572 39.4156C26.955 39.6743 26.5467 40.087 26.2909 40.5947C26 41.1718 26 41.9273 26 43.4382V44.3825H35.3675C36.7553 44.3825 37.825 44.7478 38.5767 45.4785C38.6743 45.5662 38.7658 45.6571 38.8512 45.7512C39.4489 46.4097 39.7476 47.2248 39.7476 48.1967C39.7476 48.2697 39.7462 48.3421 39.7435 48.4136C39.7011 49.4874 39.3411 50.3942 38.6634 51.134C38.5767 51.2327 38.4839 51.3251 38.385 51.4114C37.6924 52.0156 36.7011 52.3177 35.4109 52.3177H26V63.2139C26 64.7248 26 65.4803 26.2909 66.0575C26.5467 66.5651 26.955 66.9778 27.4572 67.2365C28.0281 67.5306 28.7754 67.5306 30.2701 67.5306H31.7946V57.3594H36.018C37.4636 57.3594 38.7791 57.1549 39.9645 56.7457C41.1788 56.3365 42.2196 55.7373 43.087 54.9482C43.9543 54.1299 44.6193 53.1214 45.0819 51.9231C45.5734 50.6956 45.8192 49.2927 45.8192 47.7144C45.8192 46.3992 45.5879 45.2155 45.1252 44.1633C44.6627 43.1111 43.9977 42.2197 43.1303 41.489C42.263 40.7291 41.2078 40.1445 39.9645 39.7354C38.7502 39.3262 37.3913 39.1216 35.8879 39.1216Z" fill="#1B9684"/>
<path d="M122.991 48.4208C122.71 47.7535 123.194 47.0127 123.912 47.0127H128.158C128.711 47.0127 129.207 47.3574 129.404 47.8795L133.109 57.6661L136.773 47.884C136.969 47.3596 137.466 47.0127 138.021 47.0127H141.998C142.717 47.0127 143.201 47.7564 142.917 48.4241L135.061 66.8897C134.851 67.3848 134.369 67.7056 133.835 67.7056H131.997C131.462 67.7056 130.979 67.3827 130.769 66.8853L122.991 48.4208Z" fill="#8390A6"/>
<path d="M112.322 62.6638C113.074 62.6638 113.725 62.5176 114.274 62.2254C114.852 61.9332 115.329 61.5532 115.705 61.0855C116.11 60.5887 116.399 60.0188 116.573 59.3758C116.775 58.7035 116.876 58.0021 116.876 57.2714C116.876 56.5407 116.775 55.8539 116.573 55.2108C116.399 54.5386 116.11 53.9687 115.705 53.5011C115.329 53.0042 114.852 52.6096 114.274 52.3174C113.725 52.0251 113.074 51.879 112.322 51.879C111.571 51.879 110.906 52.0251 110.328 52.3174C109.778 52.6096 109.301 53.0042 108.896 53.5011C108.521 53.9687 108.231 54.5386 108.029 55.2108C107.827 55.8539 107.725 56.5407 107.725 57.2714C107.725 58.0021 107.827 58.7035 108.029 59.3758C108.231 60.0188 108.521 60.5887 108.896 61.0855C109.301 61.5532 109.778 61.9332 110.328 62.2254C110.906 62.5176 111.571 62.6638 112.322 62.6638ZM112.322 68.1878C110.674 68.1878 109.185 67.9101 107.856 67.3548C106.554 66.7702 105.427 65.9957 104.473 65.0312C103.548 64.0375 102.839 62.883 102.348 61.5678C101.856 60.2234 101.611 58.7912 101.611 57.2714C101.611 55.7515 101.856 54.334 102.348 53.0188C102.839 51.7036 103.548 50.5491 104.473 49.5554C105.427 48.5616 106.554 47.7871 107.856 47.2318C109.185 46.6473 110.674 46.355 112.322 46.355C113.97 46.355 115.445 46.6473 116.746 47.2318C118.076 47.7871 119.203 48.5616 120.129 49.5554C121.083 50.5491 121.806 51.7036 122.297 53.0188C122.789 54.334 123.034 55.7515 123.034 57.2714C123.034 58.7912 122.789 60.2234 122.297 61.5678C121.806 62.883 121.083 64.0375 120.129 65.0312C119.203 65.9957 118.076 66.7702 116.746 67.3548C115.445 67.9101 113.97 68.1878 112.322 68.1878Z" fill="#8390A6"/>
<path d="M92.4773 41.6979C92.4773 40.2079 93.6721 39 95.1461 39H98.8957V67.5304H95.1461C93.6721 67.5304 92.4773 66.3225 92.4773 64.8324V41.6979Z" fill="#8390A6"/>
<path d="M35.6289 50.2259C36.644 50.2259 37.467 49.394 37.467 48.3678C37.467 47.3417 36.644 46.5098 35.6289 46.5098C34.6138 46.5098 33.7909 47.3417 33.7909 48.3678C33.7909 49.394 34.6138 50.2259 35.6289 50.2259Z" fill="#FA8231"/>
</g>
<defs>
<clipPath id="clip0_9422_29118">
<rect width="117" height="38" fill="white" transform="translate(26 39)"/>
</clipPath>
</defs>
</svg>
