<svg width="182" height="127" viewBox="0 0 182 127" fill="none" xmlns="http://www.w3.org/2000/svg">
<mask id="mask0" mask-type="alpha" maskUnits="userSpaceOnUse" x="55" y="44" width="72" height="46">
<path d="M97.1679 62.1187L107.743 75.0928L118.456 62.1187V82.3448C120.722 82.3448 122.895 81.4317 124.498 79.8069C126.1 78.1816 127 75.9773 127 73.6793V44.0006C123.882 44.0006 122.422 44.9332 121.253 46.2739L107.944 62.1187L94.3854 46.2253C92.9199 44.6467 91.3634 44.0006 88.533 44.0006V73.5821C88.533 75.901 89.441 78.1247 91.0578 79.7646C92.6747 81.4044 94.8672 82.3254 97.1536 82.3254V62.1187" fill="white"/>
<path opacity="0.38" d="M79.2514 58.4416C74.5963 53.4968 60.6644 57.5235 59.6922 59.0585C59.8579 57.9835 60.1707 56.9372 60.6213 55.9497C46.0908 68.7441 62.9776 88.7371 74.6681 90C59.6731 80.6544 59.1319 63.6001 79.2514 58.4416Z" fill="url(#paint0_linear)"/>
<path d="M79.3998 44.5689C78.2523 44.1837 77.0502 43.9918 75.8414 44.0003H59.6921C63.2074 54.6868 77.7475 49.4748 77.7379 55.6583C79.4381 56.5958 79.9649 57.5284 79.2513 58.4561C77.4123 56.314 60.0944 56.3966 59.6921 67.8989V69.4872C59.9843 78.8474 63.8109 81.6744 67.0196 82.2476L67.2352 82.2816L67.6183 82.3302C67.8769 82.3302 68.1355 82.369 68.3989 82.369V66.2134H77.1106C77.1106 66.2134 87.3739 66.2134 87.3739 55.7263C87.3739 48.4208 82.4218 45.6083 79.3998 44.5689Z" fill="white"/>
<path d="M76.0473 54.8812C76.1335 54.6723 75.1613 54.4878 73.8539 54.4878C73.7868 54.6043 74.85 55.1387 75.5014 55.1484C75.6053 55.1435 75.7073 55.1173 75.8012 55.0716C75.895 55.0255 75.9788 54.9609 76.0473 54.8812Z" fill="white"/>
</mask>
<g mask="url(#mask0)">
<rect x="54.1362" y="40.5418" width="125.364" height="86.7083" fill="white"/>
</g>
<defs>
<linearGradient id="paint0_linear" x1="65.3986" y1="82.8354" x2="71.8576" y2="53.1778" gradientUnits="userSpaceOnUse">
<stop stop-color="#EDEDED" stop-opacity="0"/>
<stop offset="1" stop-color="#B5B5B6"/>
</linearGradient>
</defs>
</svg>
