<svg width="182" height="127" viewBox="0 0 182 127" fill="none" xmlns="http://www.w3.org/2000/svg">
<path d="M49.9322 45.5168C51.8211 44.2105 53.6929 42.8822 55.5892 41.5874C48.7551 48.0669 41.8987 54.5245 35.0539 60.9936C35.0144 61.0416 34.9355 61.1376 34.8949 61.1855C34.864 58.1263 34.8821 55.066 34.8864 52.0068C35.4178 52.7121 35.961 53.408 36.4754 54.1249C36.4786 54.1301 36.486 54.1384 36.4892 54.1436C36.613 54.3116 36.7454 54.4754 36.9086 54.609C41.236 51.5591 45.5942 48.5521 49.9322 45.5168Z" fill="#ED1B24"/>
<path d="M36.4755 54.1249C36.479 54.1306 36.4872 54.1398 36.4907 54.1455C36.4872 54.1398 36.479 54.1306 36.4755 54.1249Z" fill="white"/>
<path d="M29 54.6331C30.462 54.6352 31.924 54.63 33.3871 54.6352C33.3828 55.5012 33.3871 56.3672 33.385 57.2333C32.813 57.2343 32.242 57.228 31.6711 57.2353C31.6754 59.8564 31.6679 62.4784 31.6743 65.0995C35.2802 65.0953 38.8872 65.1015 42.4931 65.0974C43.8196 65.0775 45.0063 63.9517 45.0618 62.6548C45.0735 61.7126 45.0597 60.7704 45.0671 59.8282C45.0831 58.6304 44.127 57.5066 42.9221 57.2969C43.5795 56.6062 44.3095 55.9843 44.9796 55.3051C46.6519 56.2347 47.7329 58.0596 47.7468 59.9377C47.7414 60.8737 47.7585 61.8107 47.7372 62.7476C47.6304 64.8344 46.1279 66.7741 44.0992 67.4335C43.4515 67.6579 42.761 67.7299 42.077 67.7205C38.6087 67.7184 35.1415 67.7226 31.6732 67.7184C31.6732 69.4619 31.6679 71.2054 31.6764 72.9489C30.7854 72.9552 29.8943 72.95 29.0032 72.951C28.9979 66.8451 29.0032 60.7391 29 54.6331Z" fill="white"/>
<path d="M49.8928 54.6331C54.4368 54.6352 58.9807 54.63 63.5247 54.6352C66.1435 54.7281 68.4763 56.9422 68.6214 59.5058C68.6353 60.5868 68.6289 61.6677 68.6257 62.7487C68.5414 64.873 66.9663 66.8023 64.9141 67.4534C66.1371 68.6585 67.3718 69.8532 68.5958 71.0583C68.6727 71.6802 68.6097 72.3219 68.6257 72.9521C67.9961 72.9521 67.3675 72.9521 66.739 72.9511C64.9568 71.2075 63.1725 69.4651 61.3904 67.7205C58.4493 67.7174 55.5071 67.7247 52.5661 67.7174C52.5575 69.4609 52.5564 71.2054 52.5661 72.95C51.676 72.9552 50.785 72.9469 49.895 72.9552C49.8907 66.8472 49.895 60.7401 49.8928 54.6331ZM52.5618 57.2312C52.5639 59.8543 52.5532 62.4774 52.5671 65.1005C56.1805 65.0932 59.7939 65.1047 63.4073 65.0953C64.7295 65.0713 65.8981 63.9402 65.96 62.6527C65.9781 61.7074 65.9653 60.761 65.9664 59.8157C65.9621 58.8036 65.2908 57.8426 64.34 57.4524C63.8843 57.2406 63.371 57.2207 62.8769 57.2322C59.4386 57.2333 56.0002 57.2333 52.5618 57.2312Z" fill="white"/>
<path d="M75.7106 54.6435C78.5108 54.6174 81.3121 54.6425 84.1123 54.632C85.7194 54.5976 87.2914 55.3739 88.2988 56.5832C89.0735 57.4826 89.5185 58.646 89.5345 59.823C89.5345 62.469 89.5345 65.1151 89.5335 67.7622C89.5185 68.9924 89.0532 70.2142 88.2198 71.1386C87.2369 72.2655 85.7418 72.9479 84.2254 72.9489C81.486 72.9521 78.7466 72.9573 76.0072 72.9468C73.9423 72.9343 71.9744 71.6165 71.2018 69.7467C70.9404 69.1165 70.7856 68.4383 70.7952 67.7559C70.7942 65.114 70.7942 62.4732 70.7952 59.8323C70.7888 58.5448 71.3064 57.2614 72.2092 56.3234C73.1014 55.3562 74.383 54.7447 75.7106 54.6435ZM76.0254 57.2395C74.6861 57.2687 73.5079 58.4154 73.461 59.7228C73.4525 62.4043 73.4567 65.0869 73.4589 67.7685C73.4567 69.103 74.6434 70.2997 76.0083 70.3373C78.7477 70.3477 81.486 70.3404 84.2254 70.3415C85.6213 70.3446 86.8698 69.1301 86.8592 67.7622C86.8634 65.0932 86.8698 62.4242 86.857 59.7562C86.8367 58.4092 85.602 57.2374 84.2297 57.2364C81.4946 57.2322 78.7594 57.2259 76.0254 57.2395Z" fill="white"/>
<path d="M96.6835 54.8125C98.1561 54.4692 99.6832 54.6769 101.167 54.8355C101.166 55.6128 101.17 56.3901 101.164 57.1675C100.888 57.1685 100.613 57.1675 100.337 57.1643C100.219 56.7136 100.086 56.266 99.9618 55.8173C98.8114 55.8841 97.5585 55.6076 96.501 56.1773C95.7038 56.5717 95.4562 57.7935 96.1755 58.3705C96.9022 58.9058 97.8157 59.0873 98.6524 59.3972C99.5947 59.7311 100.618 60.138 101.16 61.0166C101.655 61.8982 101.551 63.0543 100.957 63.8682C100.354 64.6925 99.3215 65.0942 98.3237 65.2246C96.8948 65.3853 95.3421 65.2611 94.0967 64.5015C94.2247 64.128 94.3208 63.744 94.468 63.3778C95.3965 63.9204 96.4956 64.1228 97.5681 64.0956C98.2202 64.0654 98.9149 63.9537 99.4335 63.5374C100.012 63.0742 100.162 62.1664 99.7302 61.5633C99.3492 61.0458 98.6993 60.8319 98.1103 60.6284C97.0324 60.2622 95.8457 60.0003 94.9942 59.2084C94.1756 58.4738 94.0732 57.1956 94.5556 56.2555C94.9685 55.4667 95.8276 55.0076 96.6835 54.8125Z" fill="white"/>
<path d="M136.658 55.8956C137.763 54.9753 139.249 54.5934 140.681 54.632C141.659 54.6529 142.635 54.7416 143.606 54.8501C143.606 55.6222 143.604 56.3954 143.608 57.1675C143.333 57.1675 143.059 57.1675 142.786 57.1685C142.66 56.7178 142.53 56.2691 142.403 55.8194C141.219 55.8601 139.984 55.6629 138.853 56.1022C137.807 56.4799 136.973 57.3428 136.619 58.3736C136.261 59.4087 136.277 60.5669 136.66 61.5925C137.025 62.5629 137.798 63.3851 138.782 63.7774C139.649 64.151 140.63 64.1311 141.547 63.9746C142.142 63.8567 142.742 63.6835 143.243 63.3371C143.362 63.7138 143.475 64.0936 143.613 64.465C142.92 64.9544 142.054 65.1307 141.22 65.2319C139.512 65.427 137.662 64.9878 136.41 63.7899C134.209 61.7313 134.328 57.8165 136.658 55.8956Z" fill="white"/>
<path d="M103.386 54.8041C105.587 54.8125 107.786 54.802 109.987 54.8093C109.99 55.209 109.989 55.6096 109.989 56.0103C108.275 56.0093 106.561 56.0134 104.846 56.0082C104.85 57.0318 104.847 58.0543 104.847 59.0779C106.324 59.0842 107.802 59.0967 109.279 59.0716C109.343 59.4681 109.296 59.8719 109.311 60.2726C107.822 60.2736 106.335 60.2684 104.847 60.2757C104.858 61.4882 104.828 62.7027 104.863 63.9151C106.621 63.9057 108.379 63.9109 110.137 63.912C110.14 64.3106 110.139 64.7102 110.135 65.1098C107.886 65.1025 105.638 65.1035 103.39 65.1088C103.383 61.6739 103.389 58.239 103.386 54.8041Z" fill="white"/>
<path d="M112.2 54.8022C113.333 54.8178 114.467 54.7959 115.601 54.8147C116.653 54.8627 117.792 55.1204 118.531 55.9071C119.329 56.7523 119.43 58.0346 119.119 59.0999C118.846 60.0776 118.025 60.833 117.069 61.1836C117.865 62.491 118.669 63.7931 119.451 65.1089C118.925 65.1016 118.399 65.1047 117.874 65.1057C117.113 63.8944 116.375 62.6704 115.608 61.4622C114.954 61.4997 114.297 61.4778 113.643 61.481C113.645 62.6892 113.641 63.8964 113.644 65.1047C113.163 65.1057 112.68 65.1016 112.199 65.1099C112.171 61.675 112.189 58.2381 112.2 54.8022ZM113.645 56.0115C113.642 57.4378 113.641 58.8631 113.646 60.2894C114.259 60.2758 114.872 60.304 115.485 60.2738C116.174 60.2341 116.89 59.9952 117.346 59.4662C117.873 58.814 117.972 57.8656 117.64 57.1081C117.36 56.4862 116.673 56.1607 116.017 56.0678C115.232 55.9603 114.435 56.0292 113.645 56.0115Z" fill="white"/>
<path d="M119.791 54.8096C120.291 54.8377 120.819 54.749 121.304 54.8461C122.317 57.3127 123.312 59.7887 124.323 62.2573C124.534 62.8156 124.813 63.355 124.915 63.9487C125.187 62.922 125.676 61.9683 126.048 60.975C126.888 58.9195 127.713 56.8567 128.565 54.8054C129.064 54.8085 129.565 54.8085 130.065 54.8106C128.624 58.2423 127.172 61.6709 125.732 65.1037C125.193 65.1048 124.654 65.1069 124.115 65.1037C122.684 61.6678 121.214 58.2476 119.791 54.8096Z" fill="white"/>
<path d="M131.463 54.8094C131.947 54.8083 132.431 54.8073 132.917 54.8052C132.929 58.239 132.918 61.6729 132.923 65.1056C132.433 65.0983 131.943 65.1202 131.456 65.091C131.472 61.6645 131.457 58.2369 131.463 54.8094Z" fill="white"/>
<path d="M145.522 65.1046C145.531 61.6718 145.513 58.2391 145.531 54.8063C147.729 54.8084 149.927 54.8073 152.124 54.8073C152.122 55.2069 152.121 55.6066 152.124 56.0072C150.413 56.0124 148.701 56.0124 146.989 56.0072C146.973 57.0329 146.988 58.0575 146.983 59.0832C148.466 59.0842 149.951 59.0873 151.434 59.0811C151.441 59.4786 151.437 59.8761 151.437 60.2747C149.952 60.2706 148.466 60.2706 146.981 60.2747C146.991 61.4872 146.971 62.6996 146.99 63.912C148.752 63.9099 150.514 63.9078 152.276 63.9131C152.275 64.3106 152.275 64.7092 152.276 65.1078C150.024 65.1025 147.774 65.1067 145.522 65.1046Z" fill="white"/>
<path d="M94.4787 68.3052C94.7273 68.3 94.9771 68.3 95.2268 68.3094C95.7934 69.2036 96.327 70.1186 96.8958 71.0118C97.4486 70.1082 97.9961 69.2004 98.567 68.3083C98.8146 68.301 99.0643 68.3 99.314 68.3031C99.3129 69.7816 99.3087 71.2612 99.3172 72.7407C99.1059 72.7428 98.8957 72.7438 98.6865 72.7449C98.6844 71.5147 98.6694 70.2845 98.7196 69.0564C98.2404 69.9183 97.709 70.7499 97.2074 71.5992C96.9972 71.5982 96.788 71.5982 96.5799 71.5992C96.0741 70.7436 95.5341 69.9068 95.0656 69.0314C95.1371 70.2668 95.088 71.5053 95.1009 72.7417C94.8917 72.7428 94.6836 72.7438 94.4766 72.7449C94.4808 71.2653 94.4755 69.7847 94.4787 68.3052Z" fill="white"/>
<path d="M107.939 68.3026C108.172 68.3015 108.406 68.3026 108.642 68.3026C109.466 69.5181 110.326 70.7139 111.089 71.968C111.051 70.7473 111.072 69.5254 111.063 68.3047C111.26 68.3015 111.458 68.3005 111.658 68.3015C111.65 69.7821 111.657 71.2638 111.655 72.7443C111.412 72.7454 111.172 72.7433 110.933 72.736C110.145 71.5006 109.255 70.3268 108.504 69.0695C108.52 70.2934 108.527 71.5163 108.524 72.7402C108.328 72.7412 108.134 72.7423 107.941 72.7443C107.939 71.2638 107.941 69.7832 107.939 68.3026Z" fill="white"/>
<path d="M125.963 68.3047C126.912 68.2974 127.861 68.3026 128.81 68.3015C128.809 68.4789 128.803 68.6553 128.794 68.8337C128.06 68.8118 127.325 68.8232 126.591 68.8253C126.577 69.2646 126.584 69.7049 126.579 70.1452C127.225 70.1557 127.87 70.1463 128.516 70.1515C128.512 70.3195 128.508 70.4885 128.504 70.6575C127.873 70.6492 127.243 70.6659 126.613 70.6492C126.544 71.1719 126.593 71.6989 126.577 72.2247C127.342 72.2487 128.109 72.2299 128.875 72.2341C128.875 72.4021 128.876 72.5701 128.88 72.7402C127.909 72.7475 126.937 72.7443 125.967 72.7423C125.961 71.2627 125.968 69.7842 125.963 68.3047Z" fill="white"/>
<path d="M143.849 68.3005C144.087 68.3005 144.327 68.3015 144.567 68.3088C145.381 69.5338 146.26 70.7201 147.011 71.9847C146.982 70.7577 146.986 69.5296 146.985 68.3026C147.178 68.3015 147.372 68.3005 147.569 68.3005C147.567 69.7811 147.571 71.2606 147.567 72.7401C147.331 72.7433 147.095 72.7433 146.862 72.7433C146.045 71.5142 145.19 70.309 144.398 69.0642C144.483 70.2871 144.42 71.5152 144.439 72.7412C144.24 72.7422 144.042 72.7422 143.845 72.7443C143.856 71.2627 143.851 69.7821 143.849 68.3005Z" fill="white"/>
<path d="M115.569 68.3109C115.806 68.3004 116.044 68.3004 116.282 68.3088C116.891 69.7904 117.529 71.2616 118.143 72.7422C117.928 72.7432 117.714 72.7432 117.5 72.7443C117.323 72.3248 117.153 71.9043 116.984 71.4828C116.276 71.4859 115.57 71.4859 114.865 71.4807C114.702 71.9023 114.527 72.3186 114.363 72.7401C114.144 72.7411 113.928 72.7422 113.711 72.7412C114.329 71.2637 114.966 69.7946 115.569 68.3109ZM115.922 68.8054C115.693 69.5588 115.343 70.2704 115.065 71.0081C115.637 71.0154 116.21 71.0112 116.784 71.0122C116.509 70.2714 116.171 69.5546 115.922 68.8054Z" fill="white"/>
<path d="M120.172 69.1186C120.59 68.5541 121.304 68.2536 122.005 68.2306C122.505 68.216 123.007 68.2598 123.504 68.3245C123.505 68.6542 123.505 68.9829 123.506 69.3137C123.418 69.3147 123.24 69.3178 123.151 69.3189C123.097 69.1238 123.042 68.9297 122.992 68.7356C122.372 68.7429 121.691 68.6459 121.147 69.0059C120.072 69.6674 120.121 71.4495 121.21 72.0755C121.777 72.4147 122.484 72.3427 123.086 72.1423C123.085 71.8147 123.086 71.4881 123.085 71.1615C122.753 71.1667 122.422 71.1667 122.091 71.1574C122.089 71.005 122.087 70.8537 122.085 70.7024C122.611 70.6336 123.144 70.6899 123.674 70.668C123.696 71.2252 123.672 71.7834 123.69 72.3406C122.89 72.9176 121.747 72.9729 120.873 72.5232C119.649 71.9003 119.364 70.1661 120.172 69.1186Z" fill="white"/>
<path d="M131.206 68.3035C131.457 68.2983 131.709 68.2994 131.962 68.3087C132.524 69.2061 133.065 70.1159 133.626 71.0132C134.175 70.1107 134.736 69.2155 135.284 68.3119C135.536 68.3004 135.79 68.2983 136.046 68.3035C136.042 69.7831 136.049 71.2626 136.041 72.7411C135.835 72.7432 135.629 72.7432 135.427 72.7432C135.422 71.513 135.416 70.2818 135.448 69.0516C134.979 69.9198 134.437 70.7482 133.94 71.6007C133.728 71.5986 133.517 71.5965 133.307 71.5975C132.828 70.7451 132.262 69.9396 131.833 69.0621C131.815 70.2891 131.836 71.5162 131.832 72.7432C131.621 72.7422 131.412 72.7422 131.203 72.7422C131.211 71.2626 131.205 69.7831 131.206 68.3035Z" fill="white"/>
<path d="M138.6 68.3036C139.55 68.2995 140.499 68.3015 141.449 68.3015C141.449 68.4748 141.448 68.649 141.449 68.8232C140.708 68.8232 139.967 68.8159 139.228 68.8274C139.231 69.2677 139.226 69.7091 139.228 70.1494C139.868 70.1494 140.51 70.1536 141.151 70.1463C141.154 70.3153 141.157 70.4854 141.159 70.6565C140.517 70.6555 139.875 70.6575 139.233 70.6544C139.223 71.1792 139.23 71.7051 139.229 72.231C139.992 72.2404 140.755 72.232 141.519 72.2362C141.516 72.4032 141.517 72.5722 141.517 72.7412C140.544 72.7454 139.569 72.7454 138.596 72.7412C138.605 71.2617 138.597 69.7832 138.6 68.3036Z" fill="white"/>
<path d="M149.657 68.3004C150.806 68.3035 151.956 68.2962 153.105 68.3046C153.102 68.4788 153.101 68.6531 153.1 68.8284C152.626 68.8263 152.152 68.8273 151.679 68.8284C151.68 70.1326 151.683 71.4379 151.678 72.7432C151.468 72.7422 151.261 72.7432 151.054 72.7443C151.054 71.44 151.051 70.1358 151.056 68.8315C150.596 68.8284 150.136 68.8169 149.678 68.8409C149.605 68.6677 149.641 68.4799 149.657 68.3004Z" fill="white"/>
<path d="M103.219 68.3166C103.466 68.2957 103.716 68.2957 103.965 68.3218C104.544 69.8086 105.194 71.2704 105.812 72.7427C105.59 72.7427 105.37 72.7427 105.15 72.7406C104.99 72.3191 104.809 71.9059 104.647 71.4864C103.941 71.4812 103.236 71.4885 102.531 71.4833C102.353 71.8986 102.193 72.3222 102.021 72.7416C101.804 72.7427 101.587 72.7427 101.371 72.7427C101.984 71.2663 102.634 69.8034 103.219 68.3166ZM103.564 68.7924C103.383 69.5624 102.989 70.2667 102.725 71.0117C103.3 71.0138 103.874 71.0106 104.45 71.0127C104.16 70.2709 103.838 69.5405 103.564 68.7924Z" fill="white"/>
</svg>
