<svg width="170" height="115" viewBox="0 0 170 115" fill="none" xmlns="http://www.w3.org/2000/svg">
<g clip-path="url(#clip0_9422_29229)">
<path fill-rule="evenodd" clip-rule="evenodd" d="M89.2459 65.703C88.2064 65.703 87.3631 64.8515 87.3631 63.802V58.0198V51.0099C87.3435 47.1485 84.2448 44 80.4008 44H78.1454V50.3169H79.4398C80.4793 50.3169 81.3226 51.1683 81.3226 52.2178V58V64.9901C81.3226 68.8713 84.4409 72 88.2652 72H90.5206V65.6831H89.2459V65.703ZM101.641 65.703C100.601 65.703 99.7582 64.8515 99.7582 63.802V58.0198V51.0099C99.7582 47.1287 96.6397 44 92.8156 44H90.5599V50.3169H91.8543C92.894 50.3169 93.7371 51.1683 93.7371 52.2178V58V64.9901C93.7371 68.8713 96.8556 72 100.68 72H102.935V65.6831H101.641V65.703ZM102.935 61.4852C102.935 55.7228 107.564 51.0495 113.271 51.0495C118.978 51.0495 123.607 55.7228 123.607 61.4852C123.607 67.2475 118.978 71.9208 113.271 71.9208C107.564 71.9208 102.935 67.2475 102.935 61.4852ZM108.407 61.4852C108.407 64.198 110.584 66.3961 113.271 66.3961C115.958 66.3961 118.134 64.198 118.134 61.4852C118.134 58.7723 115.958 56.5742 113.271 56.5742C110.584 56.5742 108.407 58.7723 108.407 61.4852ZM131 68.9703C131 70.6138 129.666 71.9604 128.038 71.9604C126.411 71.9604 125.077 70.6138 125.077 68.9703C125.077 67.3267 126.411 65.9802 128.038 65.9802C129.686 65.9802 131 67.3069 131 68.9703ZM125.43 45.5248V44H130.843V45.5248V64.6535H125.43V45.5248ZM40 68.4357L42.628 64.1188C44.9226 65.6634 47.4526 66.4357 49.5315 66.4357C50.7474 66.4357 51.7476 66.0594 51.7476 65.2673C51.7476 64.5028 50.3043 64.1257 48.2994 63.6019L48.0802 63.5446C44.1185 62.4752 40.961 61.1683 40.961 57.0099C40.961 52.6931 44.3735 50.297 49.0216 50.297C51.9634 50.297 55.0032 51.1683 57.2978 52.6535L54.8856 57.1485C52.8067 56 50.5513 55.2871 48.9431 55.2871C47.8644 55.2871 47.3153 55.703 47.3153 56.3366C47.3153 57.1287 48.4724 57.505 50.5905 58.1386C54.5718 59.3069 57.7293 60.6535 57.7293 64.6535C57.7293 69.1089 54.4149 71.4455 49.5315 71.4455C46.119 71.4455 42.7849 70.4752 40 68.4357ZM68.9278 51.0297C74.6349 51.0297 79.2634 55.703 79.2634 61.4654V61.5643V62.8713H64.5151C65.0054 64.7921 66.7705 66.1386 69.2024 66.1386C70.7517 66.1386 71.6343 65.7228 72.458 65.1683L78.3808 66.8911C76.8707 69.6238 73.87 71.901 69.1239 71.901C63.2403 71.901 58.5922 67.3466 58.5922 61.4654C58.5922 55.703 63.2207 51.0297 68.9278 51.0297ZM73.3601 60.099C72.7914 58.1782 71.0263 56.7921 68.9278 56.7921C66.8489 56.7921 65.0838 58.1782 64.4955 60.099H73.3601Z" fill="#00B3A8"/>
</g>
<defs>
<clipPath id="clip0_9422_29229">
<rect width="91" height="28" fill="white" transform="translate(40 44)"/>
</clipPath>
</defs>
</svg>
