<svg width="182" height="127" viewBox="0 0 182 127" fill="none" xmlns="http://www.w3.org/2000/svg">
<path d="M89.0722 33.9876C93.5669 33.6245 98.1529 34.2695 102.345 35.9471C107.08 37.8114 111.32 40.9246 114.507 44.894C117.895 49.0449 120.057 54.1498 120.796 59.4491C121.108 61.3173 121.033 63.2151 121.02 65.1012C120.805 69.6255 119.416 74.0532 117.238 78.011C116.544 79.2161 115.781 80.3826 114.925 81.4795C113.509 83.1841 112.035 84.8566 110.31 86.26C108.786 87.5449 107.089 88.6084 105.309 89.498C101 91.9276 96.017 93.0979 91.0794 92.9936C88.7851 92.9988 86.4908 92.6936 84.2673 92.1284C82.0142 91.5503 79.8022 90.7598 77.7719 89.6139C76.4406 88.862 75.1003 88.1166 73.8695 87.2063C67.2182 82.3563 62.7995 74.5888 62.0258 66.3939C61.852 64.9828 61.8957 63.5562 61.906 62.1374C62.188 55.127 65.1055 48.2685 69.931 43.179C74.8866 37.9003 81.8429 34.5206 89.0722 33.9876ZM89.0954 36.3682C88.5894 36.4415 88.0809 36.484 87.5762 36.5664C81.5172 37.4046 75.7968 40.4045 71.6305 44.8785C67.2376 49.5122 64.5776 55.7605 64.3201 62.1426C64.1476 63.385 64.3433 64.63 64.3767 65.8737C64.6394 68.5427 65.2342 71.1924 66.2745 73.6695C68.2096 78.4732 71.57 82.6885 75.8097 85.66C79.7855 88.4693 84.5261 90.1894 89.3851 90.5332C93.2283 90.8499 97.141 90.3014 100.768 88.9908C105.369 87.3132 109.519 84.3815 112.592 80.5628C116.018 76.3797 118.137 71.1422 118.571 65.7527C118.663 64.4691 118.757 63.1777 118.615 61.8941C118.36 56.6269 116.453 51.4718 113.308 47.2475C110.28 43.1983 106.124 39.9796 101.4 38.1565C98.892 37.1394 96.2114 36.5986 93.5257 36.3398C92.0502 36.2935 90.5683 36.2639 89.0954 36.3682Z" fill="white"/>
<path d="M90.1021 38.2479C92.8548 38.1063 95.6229 38.4114 98.2829 39.1247C100.512 39.6693 102.599 40.6723 104.554 41.8542C108.812 44.464 112.327 48.3058 114.417 52.852C116.482 57.3158 117.199 62.3872 116.491 67.2514C115.744 72.3306 113.343 77.1432 109.757 80.8152C106.41 84.2927 102.069 86.8123 97.3817 87.9711C92.8033 89.1401 87.8967 88.8994 83.42 87.4149C78.7992 85.884 74.6509 82.9563 71.6562 79.1182C68.4696 75.0987 66.5203 70.0852 66.2628 64.9558C66.1508 63.8987 66.1482 62.825 66.2628 61.7679C66.4547 57.9801 67.6031 54.2567 69.4842 50.9684C71.5905 47.2977 74.6393 44.173 78.2649 41.9881C81.8313 39.8084 85.9397 38.5466 90.1021 38.2479ZM99.582 43.7249C97.6919 44.33 95.6616 44.321 93.7831 44.9725C93.2398 45.1566 92.717 45.4643 92.3836 45.9446C91.9703 46.5304 91.9008 47.2771 91.9162 47.975C91.9304 53.188 91.8956 58.4011 91.9343 63.6142C92.6231 63.3297 93.0634 62.6705 93.7573 62.3975C94.6007 62.0357 95.4877 61.7924 96.3697 61.5465C97.7473 61.1667 99.1983 61.0727 100.539 60.5577C101.135 60.3272 101.516 59.6938 101.454 59.059C101.45 53.6773 101.467 48.2943 101.446 42.9112C100.842 43.2215 100.235 43.5318 99.582 43.7249ZM81.6356 42.9486C81.5158 48.4024 81.6587 53.8588 81.6162 59.3139C81.5879 59.6744 81.7244 60.053 82.0463 60.2448C82.5329 60.5332 83.0956 60.6504 83.6247 60.8358C85.0461 61.3031 86.5564 61.4126 87.9778 61.8825C89.1224 62.261 90.1652 62.8855 91.1527 63.5666C91.1553 62.5739 91.2866 61.5877 91.2557 60.5937C91.239 57.9634 91.315 55.3279 91.1708 52.7001C91.1656 50.8242 91.1643 48.947 91.163 47.0711C91.1927 46.5085 90.9287 45.9536 90.4871 45.6085C89.9695 45.2043 89.3374 44.988 88.7142 44.8064C86.8422 44.2618 84.8582 44.2039 83.0132 43.5511C82.5445 43.3722 82.1029 43.1314 81.6356 42.9486ZM79.4661 45.6587C79.4648 50.3375 79.4674 55.015 79.4635 59.6925C79.4674 60.1779 79.5009 60.6645 79.5704 61.1448C79.6412 61.5735 80.0069 61.8825 80.4111 61.9997C81.615 62.3821 82.8497 62.6589 84.0728 62.973C85.4118 63.3709 86.8242 63.4996 88.1258 64.0249C89.0683 64.3854 89.9245 64.9519 90.894 65.2455C90.6777 64.706 90.3069 64.2309 89.8099 63.9232C88.5816 63.1224 87.1139 62.8546 85.735 62.4245C84.3354 61.9495 82.8767 61.6379 81.5261 61.0237C81.1656 60.8242 80.7073 60.6053 80.5978 60.174C80.4408 57.7445 80.4446 55.3021 80.5541 52.8687C80.5618 50.5525 80.5824 48.235 80.5682 45.9175C80.5656 45.4682 80.5695 45.0111 80.4395 44.5785C80.276 44.1537 79.8987 43.8717 79.5665 43.5859C79.4108 44.267 79.4738 44.9674 79.4661 45.6587ZM102.494 45.0034C102.49 49.8599 102.492 54.715 102.494 59.5702C102.492 59.95 102.49 60.3684 102.234 60.6774C101.898 61.1473 101.28 61.2066 100.769 61.3636C99.6193 61.6932 98.4709 62.0254 97.3237 62.364C95.9461 62.7786 94.5543 63.2292 93.3338 64.0082C92.8535 64.3069 92.4505 64.7292 92.2085 65.2416C92.9166 64.9931 93.5359 64.5528 94.226 64.2605C95.2264 63.7957 96.3066 63.5472 97.3829 63.3335C99.1327 62.9653 100.853 62.4722 102.581 62.019C102.913 61.9353 103.229 61.7203 103.35 61.3881C103.509 60.9259 103.487 60.4315 103.488 59.9513C103.479 54.5257 103.501 49.1015 103.478 43.676C102.976 43.9361 102.447 44.379 102.494 45.0034ZM80.818 67.5913C80.6828 68.6985 80.7639 69.8186 80.7343 70.931C81.2467 70.9388 81.7604 70.9375 82.2742 70.9529C82.3141 72.4348 82.2394 73.9206 82.3566 75.3987C82.3746 78.3882 82.381 81.3778 82.399 84.3674C83.1728 84.3687 83.9453 84.3699 84.7178 84.3648C84.7024 80.9478 84.6934 77.5295 84.674 74.1112C84.6135 73.0657 84.544 72.0087 84.6689 70.9645C85.1182 70.9504 85.5676 70.9504 86.0169 70.931C85.9783 69.8174 86.1032 68.7088 86.098 67.5964C84.338 67.5823 82.578 67.6003 80.818 67.5913ZM86.7546 67.5913C86.7752 73.1855 86.7624 78.7796 86.7688 84.3751C88.0306 84.3687 89.2936 84.3957 90.5553 84.3609C91.4914 84.2953 92.0784 83.3374 92.1454 82.4747C92.2136 81.2761 92.157 80.0736 92.2767 78.8775C92.2806 76.5613 92.3565 74.2399 92.1956 71.9276C92.184 70.9233 92.1789 69.9023 91.9098 68.9277C91.6201 68.0522 90.6429 67.6492 89.7906 67.6003C88.7786 67.5784 87.7653 67.5926 86.7546 67.5913ZM93.2205 67.5964C93.2707 70.0234 93.1702 72.4542 93.3067 74.8785C93.3016 78.0445 93.3222 81.2104 93.3183 84.3777C94.0882 84.3751 94.8594 84.3841 95.6294 84.3648C95.6204 78.7758 95.6281 73.188 95.6319 67.599C94.8285 67.581 94.0239 67.5861 93.2205 67.5964ZM96.5821 67.5951C96.7752 72.1555 96.5577 76.7299 96.837 81.2864C96.9426 82.2559 97.1061 83.2833 97.7203 84.0738C98.3795 84.9261 99.6567 85.1193 100.594 84.6442C101.204 84.3506 101.594 83.7313 101.787 83.1018C102.163 81.8143 102.093 80.4585 102.114 79.1337C102.133 77.8462 102.08 76.5561 102.181 75.2712C102.19 72.7116 102.193 70.1508 102.201 67.59C101.386 67.5887 100.569 67.5874 99.7545 67.5913C99.806 71.8671 99.7854 76.1441 99.7494 80.4199C99.7532 80.9259 99.6888 81.428 99.627 81.9288C99.4687 81.9198 99.3103 81.9095 99.1545 81.8992C98.9447 77.1342 99.0219 72.3615 98.9807 67.5926C98.1812 67.59 97.3817 67.5861 96.5821 67.5951Z" fill="white"/>
<path d="M89.0992 70.4148C89.3683 70.4315 89.7095 70.4083 89.8511 70.6954C89.9503 71.3134 89.9554 71.943 89.958 72.5675C89.9773 74.9699 89.9889 77.3724 89.9722 79.7762C89.9606 80.3478 90.0082 80.931 89.855 81.4898C89.6052 81.5053 89.3554 81.5181 89.107 81.5259C89.1095 77.8217 89.0799 74.1176 89.0992 70.4148Z" fill="white"/>
</svg>
