<svg width="170" height="115" viewBox="0 0 170 115" fill="none" xmlns="http://www.w3.org/2000/svg">
<g clip-path="url(#clip0_9422_29200)">
<path d="M59.8262 38.1284C60.3333 37.583 60.8509 37.0026 61.0791 36.2754C61.7983 38.2481 61.5113 40.4854 60.6612 42.37C64.1829 42.7344 67.6717 43.4184 71.0794 44.3877C71.7852 46.0491 72.2726 47.7977 72.6522 49.5615C73.6761 54.4394 73.661 59.5592 72.433 64.3984C72.4294 64.4893 72.4356 64.3524 72.433 64.4443L71.0936 68.5013C69.8461 71.4648 68.1824 74.252 66.1452 76.7315C62.7895 80.8574 58.3255 84.2983 53.7858 87.003C53.7448 87.0275 53.6939 87.0272 53.653 87.0024C50.8329 85.2913 48.0459 83.3332 45.6011 81.1089C43.3412 79.0587 41.2934 76.7602 39.5904 74.217L36.6916 68.8874C36.6898 68.9594 36.6934 68.8154 36.6916 68.8874C34.3818 63.4614 33.7277 57.3687 34.6634 51.5505C35.0599 49.0972 35.6677 46.6592 36.6604 44.3787C38.6191 43.773 40.625 43.3329 42.6426 42.9784C42.3895 42.181 42.573 41.2549 43.1469 40.6438C43.7966 39.9058 44.9346 39.6638 45.8158 40.0993C46.6634 40.4908 47.2336 41.4124 47.2061 42.3537C49.2413 42.136 51.2865 42.0469 53.3325 42.01C55.7635 41.2783 58.0378 39.9526 59.8262 38.1284ZM60.974 36.8451C60.4901 38.3291 59.7415 39.7798 58.5554 40.8139C57.9414 41.3629 57.1679 41.6662 56.4211 41.9803C54.3903 42.8334 52.1633 43.1268 50.194 44.1411C49.1657 44.6748 48.1381 45.2705 47.345 46.1354C46.38 47.1748 45.7411 48.4834 45.3356 49.8387C44.6877 52.05 44.5888 54.3935 44.8152 56.6784C45.1048 59.3109 45.847 61.8838 46.9289 64.294C47.6409 65.8887 48.5722 67.3754 49.6156 68.7695C50.5468 69.9917 51.5262 71.2039 52.7417 72.1506C51.0619 69.8756 49.7626 67.3097 48.9482 64.5927C48.2861 62.4095 48.0223 60.1145 48.0954 57.8349C48.1293 56.4643 48.3573 55.0946 48.8056 53.7995C49.3216 52.3262 50.1387 50.9745 51.11 49.7649C52.0021 48.622 53.1632 47.7427 54.3066 46.8751C56.1824 45.474 58.1224 44.0511 59.4421 42.0703C60.515 40.4854 61.0693 38.5685 61.0746 36.6543C61.0497 36.702 60.9989 36.7974 60.974 36.8451ZM44.2591 40.2577C43.7876 40.4053 43.3733 40.7293 43.1184 41.1568C42.7174 41.7958 42.7156 42.6597 43.1042 43.305C43.5061 44.0007 44.333 44.412 45.1244 44.2995C46.1402 44.1923 46.977 43.2114 46.9119 42.1783C46.8905 40.8859 45.4942 39.823 44.2591 40.2577ZM59.2531 44.6388C58.2008 45.9598 56.8979 47.056 55.5051 47.992C53.1828 49.5867 51.4478 51.9752 50.5014 54.6347C49.5881 57.1986 49.2985 59.9777 49.5639 62.6848C49.883 66.1218 51.0165 69.5029 52.9627 72.3523C52.1045 71.8248 51.3266 71.1777 50.5719 70.5118C49.0943 69.1727 47.7737 67.6562 46.6696 65.9895C44.317 62.4716 43.0364 58.2165 43.1772 53.965C43.2164 51.8718 43.5488 49.7334 44.505 47.8534C45.1074 46.6528 45.9915 45.6009 47.0563 44.7935C44.1387 45.1382 41.2301 45.6395 38.3981 46.4359C37.196 49.4166 36.5704 52.6179 36.3815 55.8253C36.1141 60.5357 36.9999 65.3226 39.029 69.5795C39.8533 69.8827 40.6598 70.2354 41.4404 70.6414C42.5615 71.1975 43.5684 71.9671 44.7287 72.4467C46.585 73.2593 48.6273 73.6716 50.6512 73.5392C51.0148 73.5203 51.3694 73.4231 51.7339 73.4123C50.0042 74.5382 47.9608 75.1106 45.9184 75.2437C44.7135 75.3321 43.5078 75.1835 42.3271 74.9486C45.4229 78.9472 49.4187 82.1465 53.7193 84.7321C54.0633 84.5728 54.3769 84.3568 54.7022 84.1633C57.1858 82.6325 59.5455 80.8857 61.6798 78.8851C64.1152 76.5956 66.2611 73.9659 67.8668 71.0149C67.0328 71.6628 66.2717 72.4017 65.4367 73.0479C61.1691 76.411 55.6994 78.2263 50.283 77.9383C48.4251 77.8185 46.5145 77.5027 44.882 76.5497C44.906 76.4839 44.9524 76.3535 44.9764 76.2887C45.5592 76.3111 46.143 76.3085 46.7257 76.267C50.2938 75.9889 53.7371 74.6679 56.7312 72.713C58.3184 71.6512 59.8671 70.5315 61.4596 69.4768C64.2284 67.6301 67.1379 65.9111 70.3344 64.9428C71.5472 60.5285 71.6337 55.8298 70.738 51.3461C70.4066 49.6974 69.9699 48.0631 69.3354 46.5053C69.3034 46.3811 69.159 46.3757 69.0636 46.3352C65.9937 45.4209 62.8275 44.8502 59.6409 44.565C59.5116 44.5686 59.3343 44.493 59.2531 44.6388ZM73.9836 64.4443C72.0605 64.6702 70.1793 65.2038 68.3881 65.9409C65.2577 67.2369 62.4238 69.1348 59.6435 71.0572C58.1821 72.0525 56.7642 73.1244 55.2021 73.9587C52.249 75.5642 48.934 76.5704 45.5664 76.5982C47.264 77.3848 49.1505 77.6278 51.0014 77.6881C56.4078 77.7744 61.8027 75.7946 65.9314 72.2775C68.5361 70.006 71.2505 67.8362 74.2402 66.1001C75.4699 65.3991 71.3184 65.7761 72.6764 65.3685C71.3032 65.2839 75.3497 64.2643 73.9836 64.4443ZM31.4553 68.7478C33.1832 69.3455 34.7115 70.3903 36.1881 71.4532C37.5426 72.4359 38.9212 73.4205 40.4833 74.0405C43.6059 75.35 47.2693 75.2915 50.3374 73.8516C47.7247 73.9137 45.1074 73.181 42.8849 71.7969C41.2996 70.7925 39.5797 70.0016 37.7823 69.4723C35.7345 68.881 33.5851 68.5715 31.4553 68.7478Z" fill="white"/>
<path fill-rule="evenodd" clip-rule="evenodd" d="M33.7268 82.1304H34.6074C34.4569 82.2924 34.2769 82.4266 34.1001 82.5583C34.0938 82.563 34.0876 82.5676 34.0814 82.5723L34.0796 82.5736C33.929 82.6877 33.7762 82.8034 33.6588 82.9537C33.5303 83.1133 33.4223 83.2918 33.3541 83.4861C33.2948 83.6571 33.2647 83.8379 33.2602 84.0188C33.2505 84.3196 33.2854 84.6225 33.3729 84.9106C33.4806 85.2693 33.6524 85.6079 33.8745 85.9082C33.7138 85.7832 33.5843 85.6232 33.4612 85.4619C33.3232 85.2779 33.2001 85.0817 33.106 84.8712C32.9629 84.5532 32.8648 84.2135 32.8265 83.8661C32.7966 83.5645 32.8096 83.2552 32.8953 82.9635C32.9489 82.7845 33.0334 82.6118 33.161 82.4747C33.2658 82.3605 33.4017 82.2819 33.5376 82.2115C33.5991 82.1798 33.6624 82.1536 33.7268 82.1304ZM31.8749 85.5485L32.2043 86.1369C32.2207 86.1441 32.2371 86.151 32.2538 86.1575C32.6666 86.3304 33.151 86.3227 33.5566 86.1326C33.2112 86.1408 32.8651 86.0442 32.5713 85.8615C32.3617 85.7289 32.1343 85.6245 31.8967 85.5547C31.8894 85.5526 31.8822 85.5505 31.8749 85.5485ZM36.1583 85.4833C35.9726 85.6232 35.7936 85.7722 35.6183 85.9248C35.0724 86.3891 34.3592 86.6503 33.6444 86.639C33.3997 86.631 33.1503 86.5989 32.9258 86.4951C33.371 86.4915 33.8093 86.3587 34.1998 86.1467C34.3567 86.0631 34.5026 85.9614 34.6484 85.8596C34.6945 85.8275 34.7406 85.7953 34.787 85.7638C35.1546 85.5101 35.5292 85.2596 35.9431 85.0886C36.0639 85.0389 36.1877 84.9964 36.3138 84.9625L36.1583 85.4833ZM34.2398 82.7197C34.424 82.5962 34.5962 82.4515 34.7354 82.2771C34.7433 82.2629 34.7582 82.2647 34.7724 82.2663C34.7773 82.2669 34.7822 82.2675 34.7866 82.2673C35.2079 82.305 35.6265 82.3803 36.0324 82.5011C36.0355 82.5024 36.039 82.5034 36.0426 82.5045C36.0535 82.5077 36.0652 82.5111 36.0684 82.5235C36.1523 82.7291 36.21 82.9448 36.2538 83.1624C36.3722 83.7542 36.3608 84.3742 36.2004 84.9569C35.7778 85.0847 35.3931 85.3115 35.0271 85.5552C34.9154 85.6292 34.8054 85.7053 34.6953 85.7816C34.5979 85.8491 34.5005 85.9165 34.4019 85.9824C34.0061 86.2404 33.5508 86.4148 33.0791 86.4514C33.002 86.4569 32.9249 86.4573 32.8478 86.4543C32.846 86.4591 32.8433 86.4668 32.8406 86.4741C32.8386 86.4796 32.8367 86.4849 32.8353 86.4887C33.0512 86.6145 33.3038 86.6562 33.5494 86.672C34.2655 86.7101 34.9887 86.4705 35.5529 86.0266C35.6086 85.9835 35.6617 85.9375 35.7149 85.8913C35.7672 85.8461 35.8195 85.8007 35.8742 85.7583C35.6619 86.1478 35.3782 86.4947 35.0562 86.7969C34.774 87.0609 34.462 87.2915 34.1337 87.4936C34.1215 87.5008 34.1095 87.5082 34.0975 87.5156C34.067 87.5345 34.0364 87.5536 34.0037 87.5686C33.4351 87.2274 32.9068 86.8052 32.4976 86.2774C32.6537 86.3085 32.8131 86.328 32.9724 86.3164C33.2424 86.2988 33.5125 86.2233 33.7412 86.0747C33.716 86.0754 33.691 86.0793 33.6661 86.0832C33.6435 86.0867 33.6209 86.0902 33.5981 86.0914C33.3305 86.1089 33.0605 86.0545 32.8151 85.9472C32.7268 85.9108 32.6452 85.8617 32.5637 85.8125C32.5035 85.7764 32.4433 85.7402 32.3803 85.709C32.2771 85.6554 32.1705 85.6088 32.0615 85.5688C31.7932 85.007 31.6761 84.3752 31.7115 83.7535C31.7364 83.3302 31.8192 82.9078 31.9781 82.5144C32.3525 82.4092 32.7371 82.3431 33.1228 82.2976C32.982 82.4042 32.8651 82.5429 32.7855 82.7014C32.6591 82.9495 32.6151 83.2318 32.6099 83.508C32.5913 84.0692 32.7606 84.6307 33.0717 85.095C33.2176 85.3149 33.3923 85.5152 33.5876 85.6919C33.6874 85.7798 33.7902 85.8651 33.9037 85.9348C33.6464 85.5587 33.4965 85.1125 33.4543 84.6589C33.4192 84.3016 33.4575 83.9348 33.5783 83.5963C33.7034 83.2455 33.9328 82.9302 34.2398 82.7197Z" fill="#971837"/>
<path d="M125.845 44.072C127.483 43.1972 129.354 42.8129 131.2 42.8535C133.279 42.8777 135.395 43.4411 137.091 44.6866C137.705 45.1493 138.296 45.6667 138.745 46.2994C137.65 47.2803 136.582 48.2901 135.491 49.2747C134.847 48.4962 134.04 47.832 133.092 47.472C131.554 46.905 129.737 47.0509 128.349 47.9472C127.268 48.6492 126.541 49.8345 126.305 51.1017C125.939 52.9592 126.376 55.0974 127.839 56.3763C128.801 57.2267 130.107 57.6246 131.376 57.5607C132.991 57.5849 134.497 56.6787 135.492 55.435C136.579 56.4248 137.665 57.4167 138.75 58.4102C137.671 59.8043 136.142 60.8158 134.475 61.3422C132.794 61.875 130.993 61.9768 129.251 61.74C127.472 61.4845 125.739 60.786 124.338 59.6377C122.714 58.3319 121.597 56.4195 121.203 54.3658C120.774 52.1492 121.045 49.7651 122.118 47.769C122.953 46.1933 124.281 44.8991 125.845 44.072Z" fill="white"/>
<path d="M79.1753 43.2114C84.5792 43.214 89.983 43.2105 95.3858 43.2133C95.3867 44.582 95.3867 45.9508 95.3867 47.3197C93.5385 47.3225 91.6912 47.3126 89.843 47.3242C89.8448 52.049 89.8448 56.773 89.843 61.4977C88.1392 61.4968 86.4345 61.4977 84.7298 61.4977C84.7316 56.7712 84.7307 52.0454 84.7307 47.3197C82.8788 47.3179 81.0271 47.3206 79.1753 47.3188C79.1753 45.9491 79.1762 44.5802 79.1753 43.2114Z" fill="white"/>
<path d="M97.2776 43.207C98.6856 43.2079 100.094 43.2053 101.502 43.2088C103.613 46.7304 105.742 50.2403 107.854 53.7608C109.925 50.2438 111.989 46.7214 114.064 43.2061C115.465 43.2088 116.866 43.2061 118.266 43.207C118.292 49.3034 118.316 55.4007 118.33 61.4969C116.757 61.4978 115.184 61.4978 113.611 61.4969C113.597 58.2751 113.595 55.0532 113.567 51.8322C112.003 54.4448 110.472 57.0773 108.918 59.6961C108.156 59.6952 107.394 59.698 106.631 59.6943C105.104 57.1465 103.545 54.6167 102.016 52.069C102.016 55.2117 102.015 58.3544 102.016 61.4969C100.437 61.4978 98.8567 61.4969 97.2776 61.4978C97.2785 55.4007 97.2776 49.3043 97.2776 43.207Z" fill="white"/>
<path d="M55.9364 49.0421C57.356 48.0512 58.9146 47.2773 60.5267 46.6626C59.722 51.2119 58.8665 55.7531 58.0493 60.3006C56.546 60.8812 55.3082 62.0376 54.4634 63.4055C53.4733 65.0246 53.0038 66.9217 52.8923 68.8089C52.8487 69.5531 52.8051 70.3064 52.9156 71.0462C52.839 68.9376 53.1249 66.7741 54.0348 64.8563C54.909 63.0087 56.4462 61.4139 58.3924 60.7497C59.0163 57.6457 59.6035 54.5328 60.2104 51.4244C61.334 51.0743 62.5094 50.9393 63.6705 50.7773C62.6885 54.8226 61.6941 58.8652 60.7298 62.9141C59.2951 62.9997 57.8577 63.4308 56.7002 64.3117C55.1675 65.4538 54.1729 67.1881 53.5919 68.9925C53.4074 69.6297 53.1623 70.2713 53.1713 70.9445C53.3843 69.6422 53.862 68.3851 54.5231 67.2492C55.301 65.9336 56.4409 64.8238 57.8167 64.1642C58.8254 63.6665 59.9439 63.4128 61.064 63.3803C61.7671 60.46 62.4978 57.5467 63.2098 54.6283C64.3167 54.5759 65.4243 54.6525 66.5284 54.7183C65.4537 58.3549 64.3737 61.9917 63.3071 65.6311C61.4748 65.2235 59.4832 65.3486 57.7998 66.2287C55.4864 67.4149 53.8628 69.6648 52.9458 72.0686C51.3542 69.0285 50.2841 65.6834 49.9775 62.2509C49.7619 59.6122 50.0854 56.8809 51.2313 54.4769C52.2596 52.2676 53.951 50.4155 55.9364 49.0421Z" fill="white"/>
<path d="M93.5011 65.4854C94.0732 64.8861 94.9341 64.7132 95.728 64.689C96.6209 64.6925 97.5361 64.9228 98.266 65.4593C98.2072 65.5699 98.1501 65.6816 98.0922 65.7923C97.1333 65.0984 95.8626 64.8887 94.7282 65.1983C94.2763 65.3351 93.8299 65.5916 93.5876 66.0137C93.3416 66.4097 93.3121 66.9127 93.4306 67.3564C93.5742 67.8199 93.9743 68.1447 94.4029 68.332C95.392 68.7703 96.5042 68.835 97.4818 69.3094C97.8766 69.501 98.2427 69.7961 98.4308 70.2057C98.7534 70.9274 98.6197 71.8535 98.0495 72.4133C97.4871 72.9721 96.6691 73.1594 95.9036 73.1899C94.7575 73.2287 93.5376 72.8903 92.7214 72.0407C92.7926 71.94 92.8666 71.841 92.9415 71.7437C93.6607 72.4961 94.7202 72.8273 95.736 72.8327C96.3795 72.8156 97.0602 72.7112 97.5896 72.3125C98.159 71.895 98.3711 71.0606 98.0753 70.4162C97.922 70.0428 97.5815 69.7926 97.2305 69.6244C96.0907 69.0897 94.7344 69.1176 93.6838 68.3752C92.7695 67.7344 92.7311 66.2557 93.5011 65.4854Z" fill="white"/>
<path d="M80.4781 64.7448C80.6137 64.7439 80.7491 64.7439 80.8854 64.7448C80.8854 67.5455 80.8854 70.3471 80.8854 73.1487C80.7491 73.1478 80.6137 73.1478 80.4781 73.1487C80.4781 70.3471 80.4781 67.5464 80.4781 64.7448Z" fill="white"/>
<path d="M83.9233 73.1488C83.9214 70.3472 83.9223 67.5465 83.9223 64.7449C84.0061 64.7449 84.1727 64.7449 84.2557 64.7439C86.217 67.2954 88.1855 69.8406 90.1425 72.3955C90.1407 69.8441 90.1425 67.2936 90.1416 64.7432C90.2744 64.7432 90.4079 64.7449 90.5425 64.7467C90.5425 67.5483 90.5416 70.349 90.5425 73.1506C90.4338 73.1497 90.3269 73.1488 90.22 73.1497C88.2487 70.6037 86.2928 68.0468 84.3242 65.4999C84.3207 68.0496 84.3233 70.5992 84.3224 73.1488C84.1888 73.1488 84.0551 73.1488 83.9233 73.1488Z" fill="white"/>
<path d="M99.1705 64.7437C101.335 64.7446 103.5 64.7437 105.664 64.7446C105.663 64.868 105.662 64.9921 105.663 65.1163C104.648 65.1163 103.632 65.1154 102.617 65.1172C102.608 67.7937 102.616 70.471 102.613 73.1485C102.48 73.1476 102.348 73.1476 102.218 73.1485C102.216 70.471 102.222 67.7928 102.215 65.1154C101.2 65.1181 100.185 65.1154 99.1705 65.1163C99.1696 64.9921 99.1696 64.868 99.1705 64.7437Z" fill="white"/>
<path d="M107.229 64.7448C107.365 64.7439 107.502 64.7439 107.641 64.7448C107.641 67.5455 107.641 70.3471 107.641 73.1478C107.502 73.1478 107.365 73.1478 107.229 73.1497C107.229 70.348 107.229 67.5464 107.229 64.7448Z" fill="white"/>
<path d="M109.215 65.1163C109.214 64.9912 109.215 64.868 109.217 64.7437C111.381 64.7446 113.545 64.7437 115.709 64.7446C115.707 64.868 115.707 64.9921 115.708 65.1163C114.69 65.1163 113.673 65.1163 112.655 65.1163C112.655 67.7937 112.655 70.471 112.655 73.1485C112.524 73.1476 112.395 73.1476 112.266 73.1485C112.265 70.471 112.271 67.7937 112.264 65.1163C111.247 65.1163 110.231 65.1163 109.215 65.1163Z" fill="white"/>
<path d="M117.008 64.7437C117.141 64.7437 117.275 64.7446 117.409 64.7455C117.411 66.3447 117.408 67.944 117.411 69.5433C117.416 70.3289 117.534 71.1569 117.997 71.8111C118.384 72.37 119.036 72.694 119.697 72.7741C120.472 72.8776 121.315 72.8065 121.986 72.3682C122.603 71.9677 122.953 71.2522 123.067 70.5377C123.176 70.0004 123.149 69.4505 123.152 68.9061C123.152 67.5183 123.152 66.1315 123.152 64.7446C123.282 64.7437 123.412 64.7446 123.544 64.7455C123.544 66.1324 123.544 67.5192 123.544 68.9069C123.546 69.6026 123.567 70.3118 123.375 70.9877C123.193 71.687 122.775 72.3403 122.155 72.7183C121.4 73.1799 120.473 73.2637 119.615 73.1448C118.883 73.0414 118.166 72.6931 117.712 72.0929C117.199 71.4214 117.022 70.5548 117.009 69.7233C117.008 68.0628 117.009 66.4032 117.008 64.7437Z" fill="white"/>
<path d="M124.858 64.7446C127.022 64.7437 129.186 64.7455 131.352 64.7437C131.351 64.867 131.352 64.9912 131.354 65.1154C130.339 65.1181 129.324 65.1154 128.308 65.1172C128.303 67.7937 128.308 70.471 128.306 73.1485C128.174 73.1476 128.043 73.1485 127.915 73.1494C127.915 70.472 127.914 67.7937 127.915 65.1163C126.895 65.1154 125.876 65.119 124.857 65.1145C124.856 64.9903 124.856 64.867 124.858 64.7446Z" fill="white"/>
<path d="M132.933 73.1512C132.92 70.3487 132.931 67.5462 132.927 64.7437C134.743 64.7455 136.559 64.7437 138.376 64.7446C138.375 64.868 138.375 64.9912 138.377 65.1154C136.937 65.1172 135.497 65.1163 134.057 65.1163C133.81 65.119 133.56 65.0937 133.319 65.1541C133.335 66.3312 133.326 67.5083 133.325 68.6846C134.831 68.7035 136.338 68.6883 137.844 68.6927C137.844 68.7836 137.845 68.9663 137.846 69.0582C136.339 69.0591 134.833 69.0563 133.326 69.0591C133.327 70.2929 133.326 71.5259 133.327 72.7587C135.065 72.7696 136.803 72.7597 138.541 72.7642C138.54 72.8919 138.541 73.0197 138.543 73.1494C136.673 73.1494 134.803 73.1457 132.933 73.1512Z" fill="white"/>
<path d="M60.7201 28.0391C61.1531 28.597 61.5907 29.1532 62.0086 29.7247C62.4809 29.6554 62.9568 29.6212 63.4335 29.5951C63.2464 30.0136 63.0174 30.4114 62.8017 30.8155C63.02 31.4049 63.2072 32.0052 63.3864 32.6073C62.9907 32.4057 62.5923 32.2095 62.2011 32.0007C62.0104 33.0114 61.5916 33.9599 61.2752 34.9355C61.2422 33.923 61.187 32.9124 61.0978 31.9035C60.3377 31.9611 59.5777 31.8684 58.8184 31.8432C59.4154 31.2123 60.0953 30.667 60.7877 30.1477C60.761 29.4448 60.7566 28.741 60.7201 28.0391Z" fill="white"/>
<path d="M60.9742 36.8451C60.9991 36.7974 61.05 36.702 61.0749 36.6543C61.0696 38.5685 60.5153 40.4854 59.4423 42.0703C58.1225 44.0511 56.1826 45.474 54.3067 46.8752C53.1634 47.7428 52.0022 48.622 51.1102 49.765C50.139 50.9745 49.3217 52.3262 48.8059 53.7995C48.3575 55.0946 48.1294 56.4643 48.0956 57.8349C48.0225 60.1145 48.2862 62.4094 48.9484 64.5927C49.7629 67.3097 51.0622 69.8755 52.7419 72.1506C51.5264 71.2038 50.5471 69.9915 49.6159 68.7695C48.5723 67.3754 47.6411 65.8887 46.9291 64.2939C45.8473 61.8838 45.1049 59.3109 44.8153 56.6784C44.5889 54.3935 44.6878 52.05 45.3357 49.8387C45.7412 48.4834 46.3801 47.1748 47.3453 46.1354C48.1384 45.2705 49.1658 44.6748 50.1942 44.1411C52.1636 43.1268 54.3904 42.8334 56.4214 41.9803C57.1682 41.6662 57.9416 41.3629 58.5556 40.8139C59.7418 39.7799 60.4902 38.3291 60.9742 36.8451Z" fill="#971837"/>
<path d="M47.2658 42.1674C47.2527 41.4071 46.8359 40.7179 46.245 40.2826C45.6539 39.847 44.8815 39.6606 44.1533 39.9165C43.601 40.0897 43.1157 40.4691 42.8168 40.9702C42.3463 41.7204 42.3445 42.7321 42.7999 43.4889C43.2715 44.3047 44.2399 44.7868 45.1689 44.6553C46.3615 44.5289 47.3412 43.3807 47.2658 42.1674Z" fill="#971837" stroke="white"/>
<path d="M73.9838 64.4444C75.3499 64.2644 76.7319 64.2679 78.1052 64.3525C76.7471 64.7603 75.4701 65.3992 74.2404 66.1002C71.2507 67.8363 68.5363 70.0061 65.9315 72.2776C61.8029 75.7947 56.4079 77.7745 51.0014 77.6882C49.1506 77.6279 47.2642 77.3849 45.5665 76.5984C48.9341 76.5705 52.249 75.5643 55.2023 73.9588C56.7644 73.1245 58.1823 72.0526 59.6437 71.0573C62.424 69.1349 65.2578 67.237 68.3883 65.941C70.1795 65.2039 72.0607 64.6703 73.9838 64.4444Z" fill="white"/>
<path d="M31.4554 68.748C33.5852 68.5717 35.7346 68.8812 37.7825 69.4726C39.5799 70.0018 41.2997 70.7927 42.8851 71.7971C45.1075 73.1812 47.7248 73.9138 50.3376 73.8517C47.2694 75.2917 43.606 75.3501 40.4835 74.0407C38.9213 73.4206 37.5427 72.4361 36.1882 71.4534C34.7116 70.3905 33.1833 69.3457 31.4554 68.748Z" fill="white"/>
<path d="M95.025 77.3804C96.3536 76.754 97.9675 76.9017 99.2614 77.5514C99.1385 77.9105 98.9896 78.2597 98.8425 78.6097C98.0014 78.1796 97.0123 77.9349 96.0828 78.1895C95.6559 78.2957 95.2665 78.6907 95.3306 79.1624C95.3557 79.5647 95.7433 79.7933 96.081 79.9138C97.0291 80.2432 98.0985 80.2783 98.9442 80.8713C99.4959 81.2431 99.7133 81.9703 99.5921 82.6093C99.5021 83.1627 99.151 83.6568 98.6769 83.943C97.9907 84.3759 97.1548 84.4712 96.3626 84.4398C95.4643 84.3939 94.5536 84.177 93.789 83.6847C93.9441 83.3364 94.1018 82.988 94.2542 82.6389C95.0615 83.1429 96.0239 83.4101 96.974 83.3319C97.383 83.2905 97.8587 83.1888 98.0897 82.8054C98.3097 82.4778 98.2036 81.9963 97.8766 81.784C97.415 81.4681 96.8465 81.3924 96.318 81.2557C95.5348 81.0568 94.6248 80.8533 94.1508 80.1245C93.5769 79.1777 94.0341 77.8313 95.025 77.3804Z" fill="#ED720E"/>
<path d="M79.269 77.124C81.3185 77.1249 83.3673 77.1249 85.4168 77.124C85.4186 77.4984 85.4177 77.8719 85.4195 78.2463C84.6308 78.2463 83.8431 78.2463 83.0553 78.2472C83.0535 80.2693 83.0571 82.2916 83.0535 84.3139C82.5776 84.3166 82.1019 84.3148 81.626 84.3148C81.626 82.2943 81.6215 80.273 81.6286 78.2525C80.8417 78.2382 80.0559 78.2507 79.2699 78.2454C79.2681 77.8719 79.2681 77.4975 79.269 77.124Z" fill="#ED720E"/>
<path d="M88.5412 77.1249C89.0447 77.1258 89.5473 77.1194 90.0507 77.1284C91.1059 79.5259 92.1681 81.9198 93.2303 84.3147C92.7349 84.3164 92.2403 84.3129 91.7457 84.3173C91.5283 83.79 91.3091 83.2635 91.1032 82.7316C89.8913 82.7091 88.6793 82.7289 87.4674 82.7217C87.2447 83.2509 87.0307 83.7837 86.8106 84.3147C86.3303 84.3155 85.8509 84.3155 85.3714 84.3138C86.4257 81.9163 87.4834 79.5206 88.5412 77.1249ZM89.2826 78.3218C88.8174 79.4378 88.3611 80.5573 87.9076 81.6786C88.8245 81.6768 89.7415 81.6814 90.6585 81.676C90.2014 80.5573 89.7523 79.435 89.2826 78.3218Z" fill="#ED720E"/>
<path d="M101.084 77.1238C101.56 77.1247 102.037 77.1219 102.515 77.1265C102.514 78.1038 102.514 79.0803 102.515 80.0576C103.725 80.0811 104.935 80.0639 106.146 80.0738C106.159 79.092 106.141 78.1092 106.155 77.1274C106.634 77.1219 107.113 77.1228 107.593 77.1265C107.584 79.5231 107.62 81.9214 107.574 84.3171C107.099 84.3127 106.625 84.3163 106.152 84.3145C106.149 83.2938 106.151 82.2733 106.15 81.2528C104.939 81.2537 103.727 81.2519 102.516 81.2537C102.504 82.2742 102.533 83.2957 102.501 84.3163C102.028 84.3136 101.557 84.3154 101.086 84.3154C101.081 81.9179 101.084 79.5213 101.084 77.1238Z" fill="#ED720E"/>
<path d="M109.616 77.1249C110.09 77.1239 110.564 77.1239 111.038 77.1249C111.04 78.3586 111.035 79.5926 111.04 80.8263C112.198 79.6078 113.334 78.3667 114.499 77.1554C114.997 77.0808 115.522 77.1447 116.032 77.1258C115.058 78.1867 114.075 79.2406 113.111 80.3107C114.157 81.6435 115.202 82.9772 116.244 84.3146C115.699 84.3164 115.155 84.3138 114.61 84.3155C113.806 83.3093 112.991 82.3132 112.19 81.3052C111.794 81.694 111.424 82.1088 111.04 82.5093C111.037 83.1087 111.037 83.7089 111.04 84.3092C110.565 84.3209 110.09 84.3129 109.615 84.3146C109.615 81.9181 109.614 79.5215 109.616 77.1249Z" fill="#ED720E"/>
<path d="M117.417 77.1249C119.185 77.123 120.954 77.1258 122.724 77.123C122.723 77.4884 122.723 77.853 122.723 78.2183C121.428 78.2201 120.134 78.2183 118.84 78.2192C118.838 78.8599 118.839 79.5007 118.839 80.1425C119.984 80.1433 121.129 80.1416 122.274 80.1433C122.274 80.4943 122.274 80.8462 122.273 81.199C121.129 81.1981 119.985 81.199 118.84 81.1981C118.837 81.8685 118.84 82.5399 118.839 83.2114C120.182 83.214 121.524 83.2086 122.867 83.214C122.867 83.582 122.875 83.9501 122.858 84.3191C121.044 84.3101 119.231 84.3182 117.418 84.3147C117.415 81.9181 117.417 79.5215 117.417 77.1249Z" fill="#ED720E"/>
<path d="M124.529 77.124C124.929 77.124 125.33 77.124 125.731 77.124C127.024 78.7177 128.31 80.3179 129.603 81.9117C129.603 80.3161 129.602 78.7205 129.604 77.124C130.074 77.124 130.544 77.1249 131.014 77.123C131.013 79.5206 131.018 81.9172 131.012 84.3147C130.618 84.3156 130.226 84.3129 129.834 84.3182C128.524 82.7289 127.238 81.1189 125.938 79.5224C125.933 81.1198 125.94 82.7173 125.935 84.3147C125.466 84.3156 124.998 84.3147 124.53 84.3156C124.525 81.9181 124.529 79.5215 124.529 77.124Z" fill="#ED720E"/>
<path d="M132.209 77.1248C134.262 77.1248 136.315 77.1221 138.369 77.1267C138.367 77.5001 138.37 77.8744 138.364 78.2489C137.575 78.2444 136.786 78.2471 135.996 78.2471C135.994 80.2692 135.999 82.2915 135.994 84.3138C135.519 84.3165 135.045 84.3147 134.571 84.3147C134.568 82.2924 134.57 80.2701 134.569 78.248C133.782 78.2434 132.995 78.248 132.208 78.2462C132.207 77.8718 132.206 77.4983 132.209 77.1248Z" fill="#ED720E"/>
</g>
<defs>
<clipPath id="clip0_9422_29200">
<rect width="108" height="60" fill="white" transform="translate(31 28)"/>
</clipPath>
</defs>
</svg>
