<svg width="182" height="127" viewBox="0 0 182 127" fill="none" xmlns="http://www.w3.org/2000/svg">
<g clip-path="url(#clip0)">
<path fill-rule="evenodd" clip-rule="evenodd" d="M109.219 58.6158C109.219 65.5827 107.675 70.7745 104.592 74.1574C101.508 77.5404 96.7423 79.231 90.3182 79.231C84.316 79.231 79.7623 77.5398 76.6572 74.1574C73.552 70.775 71.9996 65.6738 72 58.8538V35.9722C72.0007 35.7146 72.1002 35.4679 72.2766 35.2858C72.4531 35.1036 72.6922 35.0009 72.9419 35H83.8251C84.0748 35.0007 84.3141 35.1034 84.4907 35.2856C84.6672 35.4677 84.7667 35.7146 84.7675 35.9722V59.3538C84.7675 62.1387 85.2669 64.2818 86.2831 65.7938C86.7875 66.4836 87.4379 67.0455 88.1847 67.4366C88.9315 67.8277 89.755 68.0377 90.5925 68.0507C91.4299 68.0636 92.2592 67.8792 93.0171 67.5114C93.7749 67.1436 94.4414 66.6021 94.9656 65.9282C95.959 64.5096 96.4541 62.4189 96.4508 59.6562V55.2776H109.219V58.6158Z" fill="white"/>
<path fill-rule="evenodd" clip-rule="evenodd" d="M108.231 52.7201H96.4514V36.0181C96.4521 35.7483 96.5563 35.4898 96.7413 35.299C96.9262 35.1082 97.1768 35.0007 97.4383 35H99.2015C99.2034 37.7387 100.259 40.3645 102.137 42.3003C104.015 44.2362 106.561 45.3236 109.216 45.3236H109.219V52.7201H108.231Z" fill="white"/>
<path fill-rule="evenodd" clip-rule="evenodd" d="M101.711 35H108.232C108.493 35.0007 108.744 35.1082 108.929 35.299C109.114 35.4898 109.218 35.7483 109.219 36.0181V42.7538C107.228 42.7538 105.318 41.9377 103.91 40.4852C102.502 39.0327 101.711 37.0626 101.711 35.0084V35Z" fill="#F4821F"/>
<path fill-rule="evenodd" clip-rule="evenodd" d="M74.1376 90.3442C75.5784 90.3442 76.2743 89.5166 76.2743 88.3014V85.3726H75.2429V88.2722C75.2429 88.5762 75.1258 88.8677 74.9175 89.0826C74.7092 89.2976 74.4266 89.4183 74.1319 89.4183C73.8373 89.4183 73.5547 89.2976 73.3464 89.0826C73.138 88.8677 73.021 88.5762 73.021 88.2722V85.3726H71.9988V88.3103C71.9988 89.511 72.6942 90.3459 74.1355 90.3459L74.1376 90.3442ZM82.4976 90.2563V89.3413H80.2122L82.4482 86.2053V85.3703H78.892V86.2859H81.128L78.892 89.4124V90.2524L82.4976 90.2563ZM87.315 90.3442C87.7207 90.354 88.121 90.2467 88.4709 90.0345C88.8208 89.8223 89.1063 89.5136 89.2953 89.1431L88.4267 88.7113C88.3211 88.923 88.1615 89.1009 87.9651 89.226C87.7687 89.3511 87.543 89.4187 87.3122 89.4214C86.9133 89.401 86.5371 89.2232 86.2617 88.9247C85.9863 88.6262 85.8327 88.2299 85.8327 87.8178C85.8327 87.4057 85.9863 87.0094 86.2617 86.7109C86.5371 86.4124 86.9133 86.2346 87.3122 86.2143C87.5427 86.2185 87.7678 86.2866 87.9639 86.4116C88.16 86.5365 88.3199 86.7136 88.4267 86.9243L89.2953 86.4847C89.1064 86.1147 88.8207 85.8067 88.4707 85.5957C88.1206 85.3848 87.7202 85.2793 87.315 85.2914C86.9872 85.2813 86.6609 85.3392 86.3553 85.4616C86.0496 85.584 85.7709 85.7685 85.5357 86.0041C85.3004 86.2396 85.1134 86.5215 84.9856 86.833C84.8579 87.1445 84.7921 87.4793 84.7921 87.8175C84.7921 88.1558 84.8579 88.4905 84.9856 88.802C85.1134 89.1135 85.3004 89.3954 85.5357 89.631C85.7709 89.8665 86.0496 90.051 86.3553 90.1734C86.6609 90.2959 86.9872 90.3538 87.315 90.3437V90.3442ZM96.1212 90.2563L94.2972 85.3726H93.0339L91.2024 90.2563H92.3521L92.6501 89.4286H94.6804L94.9714 90.2563H96.1212ZM94.4036 88.5136H92.927L93.6653 86.4119L94.4036 88.5136ZM102.926 91.4816L101.189 88.3977C101.5 88.3205 101.774 88.1327 101.964 87.8675C102.153 87.6023 102.246 87.2767 102.226 86.9479C102.234 86.7332 102.197 86.5193 102.119 86.3202C102.041 86.1211 101.923 85.9412 101.773 85.7925C101.623 85.6438 101.444 85.5296 101.248 85.4574C101.052 85.3852 100.843 85.3567 100.636 85.3737H98.4202V90.2575H99.4283V88.5214H100.167L101.769 91.4805L102.926 91.4816ZM100.486 87.607H99.4288V86.2893H100.483C100.573 86.2796 100.663 86.2894 100.749 86.318C100.834 86.3467 100.913 86.3936 100.98 86.4558C101.047 86.5179 101.1 86.5938 101.137 86.6787C101.174 86.7635 101.192 86.8553 101.192 86.9481C101.192 87.041 101.174 87.1328 101.137 87.2176C101.1 87.3024 101.047 87.3784 100.98 87.4405C100.913 87.5026 100.834 87.5495 100.749 87.5782C100.663 87.6069 100.573 87.6167 100.483 87.607H100.486ZM106.709 90.2575C108.193 90.2575 109.222 89.2909 109.222 87.8192C109.222 86.3475 108.191 85.3737 106.709 85.3737H104.842V90.2575H106.709ZM106.709 89.3424H105.85V86.2893H106.709C106.908 86.2742 107.107 86.3034 107.294 86.3749C107.48 86.4464 107.65 86.5586 107.79 86.7038C107.931 86.849 108.04 87.0238 108.109 87.2163C108.179 87.4087 108.207 87.6144 108.193 87.8192C108.201 88.0223 108.168 88.225 108.096 88.4143C108.024 88.6036 107.915 88.7754 107.775 88.9186C107.635 89.0618 107.468 89.1734 107.284 89.2462C107.1 89.319 106.903 89.3514 106.706 89.3413L106.709 89.3424Z" fill="white"/>
<path fill-rule="evenodd" clip-rule="evenodd" d="M110.446 85.2806V85.2924C110.446 85.4723 110.394 85.6482 110.297 85.7978C110.2 85.9474 110.063 86.0641 109.902 86.133C109.741 86.2019 109.563 86.22 109.392 86.185C109.221 86.1499 109.064 86.0634 108.941 85.9362C108.817 85.809 108.733 85.647 108.699 85.4706C108.665 85.2942 108.683 85.1113 108.749 84.9451C108.816 84.7789 108.929 84.6368 109.074 84.5368C109.219 84.4369 109.39 84.3835 109.564 84.3835H110.445L110.446 85.2806Z" fill="white"/>
</g>
<defs>
<clipPath id="clip0">
<rect width="38" height="56" fill="white" transform="translate(72 35)"/>
</clipPath>
</defs>
</svg>
