<svg width="170" height="115" viewBox="0 0 170 115" fill="none" xmlns="http://www.w3.org/2000/svg">
<g clip-path="url(#clip0_9423_29095)">
<path fill-rule="evenodd" clip-rule="evenodd" d="M92.257 80.0881C94.9536 81.3631 98.0616 81.9998 101.579 81.9998C106.598 81.9998 110.632 80.4424 113.681 77.3273C115.787 75.1759 117.166 72.3708 117.817 68.9138L117.716 68.8621C116.998 68.4919 116.33 68.0652 115.71 67.5808C115.308 70.3287 114.362 72.5038 112.872 74.1062C110.832 76.301 108.005 77.3988 104.394 77.3988C100.97 77.3988 98.3308 76.3836 96.4782 74.354C94.6256 72.3244 93.6992 69.0207 93.6992 64.4423V61.5624H83.638V63.0971C83.638 67.6282 84.4003 71.2744 85.9242 74.0352C87.4488 76.7963 89.5597 78.8143 92.257 80.0881ZM115.933 39.6633V43.7324C116.657 43.1809 117.431 42.7044 118.254 42.3043V39.5933C118.254 38.6496 118.419 37.8464 118.747 37.1856C119.075 36.5252 119.685 36.1007 120.576 35.9118L122.546 35.4873V34H111.711V35.4873L113.4 35.8408C114.338 36.0293 114.994 36.4785 115.37 37.1856C115.745 37.8937 115.933 38.7196 115.933 39.6633ZM83.638 47.4517V49.2216L93.6992 49.2216V47.4158C93.6992 44.7495 93.723 42.0948 93.7695 39.4518C93.7695 37.516 94.6606 36.336 96.4428 35.9118L98.4131 35.4873V34H79.4162V35.4873L80.9643 35.8408C82.6994 36.3126 83.5488 37.4692 83.5674 39.31C83.5746 40.0144 83.5828 40.7173 83.591 41.4186C83.6146 43.4425 83.638 45.4534 83.638 47.4517ZM116.776 67.1425C118.703 68.1359 120.865 68.6334 123.261 68.6334C124.768 68.6334 126.163 68.4719 127.447 68.1491C128.732 67.8253 129.905 67.3659 130.967 66.7697L131.116 61.4009H130.115L128.707 64.7931C128.51 65.2899 128.275 65.7315 128.003 66.1172C127.732 66.5018 127.349 66.7941 126.855 66.9931C126.435 67.1669 126.015 67.3038 125.595 67.4035C125.175 67.5025 124.631 67.5525 123.965 67.5525C122.507 67.5525 121.198 67.186 120.037 66.4525C118.876 65.7194 117.956 64.4828 117.277 62.7427C116.598 61.003 116.258 58.6546 116.258 55.6965C116.258 52.7139 116.616 50.3592 117.332 48.6317C118.049 46.9045 119.006 45.6676 120.204 44.9223C121.402 44.1763 122.73 43.8038 124.187 43.8038C125.027 43.8038 125.755 43.9529 126.373 44.2507C126.818 44.4251 127.182 44.7103 127.466 45.1082C127.75 45.5063 128.015 45.9532 128.263 46.4507L129.819 49.3961H130.819L130.671 44.512C129.585 43.9157 128.448 43.4619 127.262 43.1513C126.077 42.8411 124.805 42.6854 123.446 42.6854C121.693 42.6854 120.037 42.9648 118.48 43.5238C116.925 44.0829 115.547 44.916 114.35 46.0217C113.152 47.1279 112.213 48.4885 111.534 50.1046C110.854 51.7195 110.515 53.5714 110.515 55.6593C110.515 58.4427 111.077 60.8044 112.201 62.7427C113.324 64.6812 114.85 66.1478 116.776 67.1425Z" fill="url(#paint0_linear_9423_29095)"/>
<path d="M32.9462 59.8875C32.1611 59.8875 31.4704 59.7457 30.8735 59.4614C30.2611 59.1768 29.7902 58.7188 29.4605 58.1025C29.1148 57.4858 28.9422 56.68 28.9422 55.6688V53.9626C28.9422 53.3783 28.9422 52.7774 28.9422 52.1776C28.9422 51.577 28.9422 50.9765 28.9265 50.3602C28.9265 49.9495 28.7381 49.6968 28.3454 49.5856L28 49.5072V49.1753H32.2396V49.5072L31.8 49.6017C31.4072 49.6968 31.2032 49.9653 31.2032 50.3918C31.1875 50.9765 31.1875 51.577 31.1875 52.1617C31.1875 52.7619 31.1875 53.3624 31.1875 53.9626V55.9692C31.1875 56.9962 31.3915 57.723 31.8157 58.1815C32.2238 58.6395 32.8049 58.8605 33.5744 58.8605C34.3753 58.8605 35.0188 58.6079 35.474 58.1183C35.9296 57.6286 36.1494 56.9017 36.1494 55.9376V50.4392C36.1494 50.2341 36.1027 50.0442 36.0238 49.8863C35.9453 49.7284 35.7884 49.6333 35.5843 49.5856L35.2075 49.5072V49.1753H37.6256V49.5072L37.186 49.6017C36.9816 49.6491 36.856 49.7445 36.7776 49.8863C36.6991 50.0285 36.6677 50.2181 36.6677 50.4233V55.8432C36.6677 57.1545 36.3223 58.1498 35.6471 58.8448C34.9718 59.5397 34.061 59.8875 32.9462 59.8875L32.9462 59.8875Z" fill="#FEFEFE"/>
<path d="M37.3584 59.6187V59.2709L41.6296 52.4454H39.4467C39.1802 52.4454 38.9758 52.5244 38.8345 52.6668C38.6773 52.8086 38.5363 53.0143 38.4108 53.2512L37.8767 54.294L37.4682 54.2627L37.5785 52.0347H43.7965V52.3509L39.6198 59.1926H41.8965C42.2104 59.1926 42.4462 59.113 42.6032 58.9553C42.7444 58.8129 42.8857 58.6075 43.0116 58.339L43.5611 57.1854H43.9691L43.8279 59.6187H37.3584V59.6187Z" fill="#FEFEFE"/>
<path d="M46.874 59.8243L44.2987 59.619V59.3185L44.4557 59.287C44.8639 59.1929 45.0682 58.9241 45.0682 58.4969V50.2812C45.0682 50.0761 45.0368 49.9018 44.9583 49.7915C44.8795 49.681 44.7228 49.5856 44.5189 49.5388L44.3144 49.4914V49.2068L46.9996 48.5273L47.2037 48.6698L47.1409 50.8975V52.5562C47.879 52.0508 48.6798 51.7981 49.5435 51.7981C50.4225 51.7981 51.1449 52.1143 51.726 52.7619C52.3071 53.4098 52.5897 54.421 52.5897 55.7639C52.5897 56.6645 52.4484 57.4071 52.1499 58.0073C51.8516 58.6236 51.4592 59.0816 50.9725 59.3821C50.4853 59.6825 49.9359 59.8402 49.3391 59.8402C48.947 59.8402 48.5542 59.7925 48.1618 59.6825C47.7691 59.5713 47.4081 59.4137 47.1094 59.1929L46.874 59.8243L46.874 59.8243ZM48.6013 59.1452C48.947 59.1452 49.2449 59.0501 49.5121 58.8447C49.779 58.6395 49.9831 58.3074 50.1242 57.8177C50.2659 57.3282 50.3444 56.6645 50.3444 55.8267C50.3444 54.9899 50.2816 54.3259 50.14 53.8521C49.9987 53.3782 49.8103 53.0462 49.5592 52.8566C49.292 52.6671 48.9938 52.5724 48.6327 52.5724C48.1618 52.5724 47.6746 52.7142 47.1879 52.983V58.75C47.6118 59.0185 48.083 59.1452 48.6013 59.1452V59.1452Z" fill="#FEFEFE"/>
<path d="M56.9705 51.7979C57.63 51.7979 58.1952 51.9397 58.6664 52.2082C59.1374 52.477 59.4987 52.8564 59.7655 53.3303C60.0167 53.8202 60.1422 54.3731 60.1422 54.9897C60.1422 55.1315 60.1422 55.2582 60.1266 55.3684C60.1109 55.4951 60.0952 55.6053 60.0637 55.7162H55.3373C55.353 56.8067 55.5571 57.5806 55.9499 58.0544C56.3423 58.5283 56.9077 58.7652 57.6615 58.7652C58.1795 58.7652 58.6037 58.6711 58.9333 58.4967C59.2629 58.323 59.5615 58.0864 59.8283 57.7698L60.0794 58.0071C59.7655 58.5918 59.3414 59.0341 58.8077 59.35C58.258 59.6823 57.6144 59.8399 56.8763 59.8399C56.1382 59.8399 55.4786 59.6823 54.9135 59.3657C54.3481 59.0499 53.9082 58.5918 53.5943 57.9913C53.2647 57.4069 53.1077 56.6958 53.1077 55.8587C53.1077 54.9897 53.296 54.2628 53.6728 53.6622C54.0341 53.0615 54.5208 52.6037 55.1173 52.2717C55.6984 51.9555 56.3265 51.7979 56.9705 51.7979V51.7979ZM56.892 52.2559C56.5934 52.2559 56.3265 52.3349 56.1069 52.509C55.8713 52.6827 55.6984 52.9983 55.5728 53.4253C55.4315 53.8676 55.353 54.484 55.3373 55.2739H58.1481C58.258 54.2154 58.2265 53.4412 58.0225 52.9673C57.8185 52.4928 57.4414 52.2559 56.892 52.2559Z" fill="#FEFEFE"/>
<path d="M60.3931 59.619V59.3186L60.6289 59.24C60.9899 59.1293 61.1626 58.8767 61.1626 58.466V50.2812C61.1626 50.0761 61.1155 49.9018 61.037 49.7915C60.9585 49.681 60.8015 49.6017 60.5974 49.5543L60.3931 49.4914V49.191L63.1411 48.5273L63.3451 48.6698L63.2823 50.8975V58.466C63.2823 58.8924 63.455 59.1452 63.8164 59.2554L64.0361 59.3185V59.619H60.3931V59.619ZM66.1401 59.619L63.298 55.6687L66.0773 53.0778C66.219 52.9675 66.2975 52.8251 66.3131 52.6829C66.3288 52.5405 66.2503 52.4457 66.046 52.398L65.7948 52.3351V52.035H68.2445V52.3351L67.789 52.4457C67.5536 52.5092 67.3649 52.5882 67.2236 52.6991C67.0827 52.8089 66.9096 52.9675 66.7056 53.1413L64.9786 54.7684L67.6477 58.4499C67.8204 58.6713 67.962 58.8447 68.1032 58.9556C68.2445 59.0816 68.4171 59.1929 68.6527 59.2712L68.8097 59.3185V59.619H66.1401L66.1401 59.619Z" fill="#FEFEFE"/>
<path d="M70.8195 50.9285C70.4739 50.9285 70.1756 50.8183 69.9402 50.5972C69.7043 50.3754 69.5788 50.0911 69.5788 49.7598C69.5788 49.412 69.7043 49.1273 69.9402 48.9065C70.1756 48.7011 70.4739 48.5903 70.8195 48.5903C71.1648 48.5903 71.4631 48.7011 71.6989 48.9065C71.9343 49.1273 72.0599 49.412 72.0599 49.7598C72.0599 50.0911 71.9343 50.3754 71.6989 50.5972C71.4631 50.8183 71.1648 50.9285 70.8195 50.9285ZM69.0137 59.6188V59.3183L69.2491 59.2552C69.4532 59.1927 69.5945 59.0973 69.673 58.9705C69.7515 58.8445 69.7832 58.6711 69.7986 58.4658V55.5583C69.7986 55.2267 69.7986 54.9262 69.7986 54.6415C69.7986 54.3731 69.7986 54.0885 69.7832 53.7887C69.7832 53.583 69.7515 53.4096 69.673 53.2829C69.5945 53.1724 69.4375 53.0934 69.2334 53.046L69.0137 52.9983V52.714L71.7617 51.7979L71.95 51.9716L71.9026 54.2154V58.4809C71.9026 58.687 71.95 58.8603 72.0285 58.9871C72.107 59.1131 72.2326 59.2081 72.4367 59.271L72.6093 59.3183V59.6188H69.0137V59.6188Z" fill="#FEFEFE"/>
<path d="M75.6711 59.8399C75.1685 59.8399 74.7133 59.7922 74.3206 59.6823C73.9124 59.5556 73.52 59.4134 73.1587 59.2081V57.3437H73.5828L74.0541 58.244C74.2578 58.6392 74.4779 58.9239 74.7448 59.1131C74.9963 59.3025 75.3259 59.3977 75.7186 59.3977C76.2052 59.3977 76.5976 59.2868 76.8962 59.066C77.1941 58.8603 77.3357 58.5599 77.3357 58.197C77.3357 57.8649 77.2259 57.5806 77.0057 57.3753C76.786 57.1696 76.3935 56.9643 75.8281 56.7906L75.1374 56.5695C74.525 56.3796 74.0383 56.0956 73.677 55.7004C73.316 55.321 73.1273 54.8469 73.1273 54.2628C73.1273 53.8044 73.2532 53.3938 73.4887 53.0144C73.7241 52.6511 74.0854 52.351 74.5407 52.1299C74.9963 51.9081 75.5613 51.7979 76.2209 51.7979C76.6448 51.7979 77.0531 51.8453 77.4142 51.9397C77.7752 52.0505 78.1209 52.1927 78.4662 52.3668L78.372 54.0568H77.9636L77.477 53.1569C77.3044 52.8248 77.1474 52.5879 76.9747 52.4455C76.8017 52.3194 76.5348 52.2559 76.1738 52.2559C75.7968 52.2559 75.4672 52.351 75.1846 52.5402C74.8863 52.7456 74.7448 53.0144 74.7448 53.3621C74.7448 53.6939 74.8706 53.947 75.1058 54.1522C75.3415 54.3572 75.7339 54.5626 76.268 54.7366L76.9433 54.942C77.7124 55.1789 78.2465 55.5109 78.5761 55.9058C78.9061 56.3009 79.0631 56.7906 79.0631 57.3437C79.0631 58.0864 78.7644 58.6869 78.1837 59.145C77.5868 59.6026 76.7546 59.8399 75.6711 59.8399V59.8399Z" fill="#FEFEFE"/>
<path d="M82.3918 59.84C81.7482 59.84 81.2299 59.6823 80.8685 59.35C80.4918 59.0341 80.3034 58.5125 80.3034 57.786C80.3034 57.5329 80.3034 57.2964 80.3191 57.0594C80.3191 56.8384 80.3191 56.5695 80.3191 56.2694V52.5245H79.2043V52.1774L79.6281 52.1142C79.9264 52.0667 80.1935 51.9716 80.4133 51.8295C80.6174 51.687 80.8214 51.4975 80.9944 51.2606L82.0147 49.8384H82.486L82.4388 52.0348H84.229V52.5245H82.4232V57.9127C82.4232 58.2915 82.5016 58.5757 82.6743 58.7653C82.8316 58.9554 83.0357 59.0499 83.2712 59.0499C83.4755 59.0499 83.6639 59.0032 83.8366 58.8922C84.0092 58.7972 84.1662 58.6711 84.3388 58.4967L84.5429 58.7343C84.3388 59.0815 84.072 59.35 83.7106 59.5395C83.3499 59.7455 82.9098 59.84 82.3918 59.84V59.84Z" fill="#FEFEFE"/>
<path d="M86.9926 59.8399C86.3958 59.8399 85.8935 59.6661 85.4851 59.3183C85.0613 58.9871 84.8572 58.4967 84.8572 57.8494C84.8572 57.3437 85.1084 56.8699 85.595 56.4428C86.0819 56.0163 86.8357 55.7162 87.8878 55.5109C88.0604 55.4635 88.2802 55.4316 88.5156 55.3846C88.7514 55.3523 88.9711 55.321 89.2066 55.2739V54.1522C89.2066 53.4412 89.1124 52.9354 88.9398 52.6669C88.767 52.3978 88.4842 52.2559 88.0918 52.2559H88.0447C87.8089 52.2559 87.6206 52.3349 87.4796 52.477C87.338 52.6356 87.2438 52.8883 87.1967 53.2352L87.1496 53.4412C87.1182 53.8676 87.0084 54.168 86.82 54.3572C86.6317 54.5626 86.3958 54.6577 86.1133 54.6577C85.8465 54.6577 85.6421 54.5783 85.4694 54.405C85.2967 54.247 85.2026 54.0413 85.2026 53.7725C85.2026 53.3461 85.3438 52.9828 85.6421 52.6827C85.9406 52.3826 86.333 52.1614 86.82 52.019C87.3066 51.8768 87.8246 51.7979 88.39 51.7979C89.3165 51.7979 90.0389 52.019 90.5258 52.477C91.0124 52.9354 91.2635 53.6622 91.2635 54.6892V58.213C91.2635 58.6711 91.4836 58.8922 91.9075 58.8922H92.2685L92.4258 59.066C92.2371 59.3025 92.0331 59.4928 91.7976 59.6346C91.5622 59.7606 91.2479 59.8241 90.8555 59.8241C90.4002 59.8241 90.0546 59.7138 89.7877 59.4928C89.5209 59.2868 89.3322 59.0031 89.2537 58.6392C88.9241 59.0031 88.5941 59.2868 88.2644 59.5079C87.9348 59.7293 87.511 59.8399 86.9926 59.8399V59.8399ZM87.9034 58.8284C88.1074 58.8284 88.3115 58.7813 88.5002 58.6869C88.6885 58.5918 88.9241 58.4339 89.2066 58.213V55.6843C88.9398 55.732 88.6572 55.7797 88.3746 55.8429C87.9191 55.9531 87.5578 56.1423 87.2909 56.4269C87.0084 56.7117 86.8671 57.091 86.8671 57.5806C86.8671 58.0071 86.9613 58.3072 87.1654 58.5125C87.3537 58.7185 87.6052 58.8284 87.9034 58.8284V58.8284Z" fill="#FEFEFE"/>
<path d="M92.394 59.6188V59.3183L92.6452 59.2552C92.9909 59.145 93.1635 58.8922 93.1635 58.4809V53.8202C93.1478 53.5988 93.1164 53.4253 93.0537 53.2984C92.9909 53.1884 92.8496 53.1092 92.6452 53.0615L92.394 52.9983V52.7139L94.9379 51.7979L95.1263 51.9716L95.2362 52.9515C95.6132 52.6195 96.037 52.3349 96.5083 52.1141C96.9635 51.9081 97.419 51.7979 97.8742 51.7979C98.5653 51.7979 99.099 51.9871 99.476 52.3668C99.8371 52.7456 100.025 53.3303 100.025 54.1045V58.4967C100.025 58.908 100.214 59.1608 100.591 59.271L100.763 59.3183V59.6188H97.1518V59.3183L97.3877 59.2552C97.733 59.145 97.9056 58.8764 97.9056 58.4809V53.7886C97.9056 53.4253 97.8271 53.1569 97.6702 52.9828C97.5132 52.8087 97.2464 52.7297 96.885 52.7297C96.367 52.7297 95.8329 52.9515 95.2836 53.4096V58.4967C95.2836 58.908 95.472 59.1608 95.8329 59.271L95.9899 59.3183V59.6188H92.394H92.394Z" fill="#FEFEFE"/>
<path d="M101.69 48.0688C102.067 48.0688 102.365 48.1955 102.601 48.4644C102.836 48.7329 102.946 49.0958 102.946 49.5543C102.946 50.139 102.773 50.676 102.443 51.1814C102.114 51.6871 101.69 52.0669 101.203 52.3035L101.046 52.0349C101.25 51.8615 101.438 51.6556 101.611 51.4187C101.768 51.1814 101.894 50.8813 101.988 50.5341L101.658 50.4391C101.329 50.3289 101.062 50.1705 100.873 49.9652C100.669 49.7599 100.575 49.4914 100.575 49.191C100.575 48.8593 100.685 48.5746 100.904 48.3693C101.125 48.164 101.391 48.0688 101.69 48.0688V48.0688Z" fill="#FEFEFE"/>
<path d="M104.924 59.8399C104.422 59.8399 103.966 59.7922 103.574 59.6823C103.165 59.5556 102.773 59.4134 102.412 59.2081V57.3437H102.836L103.307 58.244C103.511 58.6392 103.731 58.9239 103.998 59.1131C104.249 59.3025 104.579 59.3977 104.971 59.3977C105.458 59.3977 105.851 59.2868 106.149 59.066C106.447 58.8603 106.588 58.5599 106.588 58.197C106.588 57.8649 106.479 57.5806 106.259 57.3753C106.039 57.1696 105.647 56.9643 105.081 56.7906L104.391 56.5695C103.778 56.3796 103.291 56.0956 102.93 55.7004C102.569 55.321 102.38 54.8469 102.38 54.2628C102.38 53.8044 102.506 53.3938 102.741 53.0144C102.977 52.6511 103.338 52.351 103.794 52.1299C104.249 51.9081 104.814 51.7979 105.474 51.7979C105.898 51.7979 106.306 51.8453 106.667 51.9397C107.028 52.0505 107.374 52.1927 107.719 52.3668L107.625 54.0568H107.217L106.73 53.1569C106.557 52.8248 106.4 52.5879 106.227 52.4455C106.055 52.3194 105.788 52.2559 105.427 52.2559C105.05 52.2559 104.72 52.351 104.437 52.5402C104.139 52.7456 103.998 53.0144 103.998 53.3621C103.998 53.6939 104.123 53.947 104.359 54.1522C104.594 54.3572 104.987 54.5626 105.521 54.7366L106.196 54.942C106.965 55.1789 107.499 55.5109 107.829 55.9058C108.159 56.3009 108.316 56.7906 108.316 57.3437C108.316 58.0864 108.017 58.6869 107.436 59.145C106.84 59.6026 106.008 59.8399 104.924 59.8399V59.8399Z" fill="#FEFEFE"/>
<path d="M122.383 59.007C121.796 59.007 121.261 58.8758 120.778 58.6132C120.295 58.3634 119.93 57.9831 119.656 57.4845C119.382 56.9986 119.239 56.3947 119.239 55.6863C119.239 54.9775 119.396 54.3733 119.695 53.8749C119.996 53.376 120.413 52.9953 120.922 52.7196C121.431 52.4573 121.978 52.3257 122.591 52.3257C123.087 52.3257 123.505 52.4047 123.857 52.5754C124.209 52.7456 124.47 52.9561 124.652 53.2052C124.835 53.4678 124.926 53.7439 124.926 54.0324C124.926 54.2816 124.861 54.4651 124.718 54.5972C124.574 54.7278 124.379 54.7935 124.157 54.7935C123.909 54.7935 123.714 54.7015 123.57 54.531C123.413 54.3608 123.322 54.1378 123.296 53.8617C123.283 53.6909 123.296 53.5333 123.309 53.4155C123.322 53.297 123.309 53.1789 123.296 53.0611C123.257 52.9163 123.205 52.8114 123.127 52.7591C123.035 52.7067 122.918 52.6808 122.774 52.6808C122.226 52.6808 121.809 52.9038 121.522 53.3365C121.222 53.7834 121.078 54.5046 121.078 55.4895C121.078 56.3427 121.235 56.9858 121.561 57.445C121.887 57.9047 122.383 58.1278 123.061 58.1278C123.465 58.1278 123.792 58.0489 124.053 57.8912C124.313 57.7468 124.548 57.5237 124.77 57.2348L124.979 57.3925C124.757 57.9172 124.431 58.3111 123.987 58.5872C123.531 58.8758 122.996 59.007 122.383 59.007V59.007Z" fill="#FEFEFE"/>
<path d="M125.07 58.8231V58.5737L125.266 58.5216C125.552 58.4292 125.696 58.2061 125.696 57.8651C125.696 57.5627 125.696 57.2607 125.709 56.9593C125.709 56.6575 125.709 56.3686 125.709 56.0666V51.0791C125.709 50.8949 125.683 50.7511 125.618 50.6589C125.552 50.5667 125.435 50.5016 125.266 50.4622L125.07 50.4092V50.16L127.353 49.6089L127.522 49.7268L127.47 51.5777V57.8651C127.483 58.0356 127.522 58.18 127.587 58.285C127.653 58.4032 127.757 58.4818 127.927 58.5216L128.109 58.5737V58.8231H125.07V58.8231Z" fill="#FEFEFE"/>
<path d="M130.679 59.0072C130.34 59.0072 130.027 58.9418 129.753 58.8104C129.479 58.692 129.257 58.482 129.101 58.1803C128.931 57.8914 128.853 57.511 128.866 57.0254L128.905 53.7302C128.905 53.5334 128.879 53.4021 128.814 53.3104C128.749 53.2189 128.644 53.1659 128.488 53.1267L128.331 53.0744V52.8382L130.562 52.4048L130.705 52.5489L130.64 54.4002V57.3794C130.64 57.6811 130.718 57.8914 130.888 58.0227C131.044 58.1668 131.24 58.233 131.488 58.233C131.736 58.233 131.97 58.1935 132.179 58.1141C132.375 58.049 132.584 57.9312 132.805 57.7864L132.845 53.744C132.845 53.5473 132.818 53.4021 132.766 53.3238C132.701 53.2449 132.597 53.179 132.44 53.1395L132.297 53.1007V52.8642L134.475 52.4048L134.619 52.5489L134.58 54.4002V57.8391C134.58 58.0227 134.606 58.1668 134.658 58.2721C134.697 58.3902 134.802 58.4689 134.971 58.5219L135.141 58.5739V58.8233L132.936 58.9542L132.818 58.128C132.519 58.377 132.205 58.5874 131.853 58.7574C131.501 58.9282 131.109 59.0072 130.679 59.0072L130.679 59.0072Z" fill="#FEFEFE"/>
<path d="M137.553 58.9938L135.414 58.8231V58.5737L135.544 58.5477C135.884 58.4687 136.053 58.2455 136.053 57.8911V51.0656C136.053 50.8949 136.028 50.7511 135.962 50.6589C135.897 50.5668 135.767 50.4885 135.597 50.4487L135.427 50.4092V50.1732L137.658 49.6089L137.827 49.7268L137.775 51.5777V52.956C138.388 52.5362 139.054 52.3256 139.771 52.3256C140.502 52.3256 141.102 52.5881 141.584 53.1265C142.067 53.6648 142.302 54.5045 142.302 55.6207C142.302 56.3686 142.185 56.9857 141.937 57.4844C141.689 57.9961 141.363 58.3768 140.958 58.6262C140.554 58.8757 140.097 59.0069 139.602 59.0069C139.276 59.0069 138.949 58.9675 138.623 58.8757C138.297 58.7839 137.997 58.6526 137.749 58.4687L137.553 58.9938V58.9938ZM138.988 58.4292C139.276 58.4292 139.523 58.3509 139.745 58.1801C139.967 58.0093 140.137 57.7339 140.254 57.3265C140.371 56.9202 140.436 56.3686 140.436 55.6727C140.436 54.9774 140.384 54.4262 140.267 54.0323C140.15 53.6385 139.993 53.3624 139.784 53.2052C139.563 53.0475 139.315 52.9692 139.015 52.9692C138.623 52.9692 138.219 53.0874 137.815 53.3101V58.1015C138.167 58.3245 138.558 58.4292 138.988 58.4292Z" fill="#FEFEFE"/>
</g>
<defs>
<linearGradient id="paint0_linear_9423_29095" x1="79.4162" y1="81.9998" x2="133.666" y2="78.9197" gradientUnits="userSpaceOnUse">
<stop stop-color="#A5834D"/>
<stop offset="0.392137" stop-color="#FFC876"/>
<stop offset="1" stop-color="#FFC876"/>
</linearGradient>
<clipPath id="clip0_9423_29095">
<rect width="115" height="48" fill="white" transform="translate(28 34)"/>
</clipPath>
</defs>
</svg>
