<svg width="170" height="115" viewBox="0 0 170 115" fill="none" xmlns="http://www.w3.org/2000/svg">
<g clip-path="url(#clip0_9423_29102)">
<path fill-rule="evenodd" clip-rule="evenodd" d="M84.4301 38.3096C86.0285 38.3096 87.5753 38.4901 89.0448 38.8512C87.9362 40.0891 87.266 41.7138 87.266 43.4933C87.266 44.9118 87.7042 46.2528 88.4261 47.3618C87.1886 46.8976 85.8223 46.6397 84.4301 46.6397C78.0882 46.6397 72.9322 51.7976 72.9322 58.1419C72.9322 64.4862 78.0882 69.6442 84.4301 69.6442C90.7721 69.6442 95.9281 64.4862 95.9281 58.1419C95.9281 55.1245 94.768 52.365 92.8603 50.3276C93.2985 50.405 93.7626 50.4566 94.2266 50.4566C96.9851 50.4566 99.3826 48.8318 100.491 46.5107C102.863 49.786 104.255 53.8092 104.255 58.1419C104.255 69.1026 95.3867 77.9743 84.4301 77.9743C73.4736 77.9743 64.6052 69.1026 64.6052 58.1419C64.6052 47.2071 73.4736 38.3096 84.4301 38.3096Z" fill="#F9C281"/>
<path fill-rule="evenodd" clip-rule="evenodd" d="M94.2266 38C97.2687 38 99.7436 40.4758 99.7436 43.519C99.7436 46.5622 97.2687 49.038 94.2266 49.038C91.1846 49.038 88.7097 46.5622 88.7097 43.519C88.7097 40.4758 91.1846 38 94.2266 38Z" fill="#F9C281"/>
<path fill-rule="evenodd" clip-rule="evenodd" d="M75.5618 54.0928H83.6052V56.8523H81.0014V63.4545H78.1398V56.8523H75.5618V54.0928Z" fill="#F9C281"/>
<path fill-rule="evenodd" clip-rule="evenodd" d="M84.6879 54.1958H87.6011L89.1995 59.8953L90.7978 54.1958H93.711L90.6174 63.4028H89.1995H87.8073L84.6879 54.1958Z" fill="#F9C281"/>
<path fill-rule="evenodd" clip-rule="evenodd" d="M99.5889 72.842H108.999V66.0593H113.794H121.579H121.76C122.868 66.0593 123.796 66.962 123.796 68.0967V68.6383V72.481V72.8678H132.742V66.0851C132.742 63.8672 131.324 62.1135 129.571 61.6235C129.571 61.6235 131.376 61.2108 132.304 59.1219C133.232 57.0329 133.206 52.3649 132.433 50.0954C130.938 45.7112 127.045 45.118 123.178 45.118H100.981C103.817 48.7286 105.518 53.2676 105.518 58.2192C105.544 63.8672 103.275 69.0509 99.5889 72.842ZM108.973 52.9065H121.837C122.946 52.9065 123.874 53.8092 123.874 54.9439V56.1044C123.874 57.2134 122.972 58.1418 121.837 58.1418H108.973V52.9065ZM38 65.1051L55.5563 52.8291H38.5929V45.0664H67.8792C65.2754 48.3675 63.6255 52.4681 63.3677 56.9297L51.7151 65.0793H64.502C65.5332 68.0193 67.1574 70.6499 69.2714 72.842H38V65.1051Z" fill="#F9C281"/>
</g>
<defs>
<clipPath id="clip0_9423_29102">
<rect width="95" height="40" fill="white" transform="translate(38 38)"/>
</clipPath>
</defs>
</svg>
